<svg width="52" height="52" viewBox="0 0 52 52" fill="none" xmlns="http://www.w3.org/2000/svg">
<circle cx="26" cy="26" r="26" fill="#26F170" fill-opacity="0.13"/>
<path fill-rule="evenodd" clip-rule="evenodd" d="M23.3177 35.6975C23.9059 36.3528 24.6611 36.7128 25.4447 36.7128H25.4459C26.2329 36.7128 26.9915 36.3528 27.5809 35.6964C27.8966 35.3477 28.4349 35.3193 28.7835 35.6339C29.1333 35.9485 29.1617 36.4879 28.8471 36.8366C27.9295 37.8552 26.7223 38.4162 25.4459 38.4162H25.4436C24.1705 38.4151 22.9656 37.8541 22.0514 36.8354C21.7369 36.4868 21.7653 35.9474 22.115 35.6339C22.4648 35.3182 23.0031 35.3466 23.3177 35.6975ZM25.5013 14C30.5492 14 33.9402 17.9316 33.9402 21.6031C33.9402 23.4917 34.4206 24.2923 34.9305 25.1418C35.4347 25.9799 36.0059 26.9315 36.0059 28.7304C35.6096 33.3263 30.8115 33.7011 25.5013 33.7011C20.191 33.7011 15.3918 33.3263 15 28.8031C14.9966 26.9315 15.5678 25.9799 16.0721 25.1418L16.2501 24.8421C16.6884 24.0889 17.0624 23.2695 17.0624 21.6031C17.0624 17.9316 20.4534 14 25.5013 14ZM25.5013 15.7035C21.5322 15.7035 18.7658 18.8128 18.7658 21.6031C18.7658 23.9641 18.1105 25.0554 17.5314 26.0185C17.0669 26.7918 16.7001 27.4028 16.7001 28.7304C16.8897 30.8722 18.3036 31.9976 25.5013 31.9976C32.6592 31.9976 34.1174 30.8222 34.3059 28.6566C34.3025 27.4028 33.9357 26.7918 33.4712 26.0185C32.892 25.0554 32.2368 23.9641 32.2368 21.6031C32.2368 18.8128 29.4703 15.7035 25.5013 15.7035Z" fill="#26F170"/>
</svg>
