<svg width="12" height="14" viewBox="0 0 12 14" fill="none" xmlns="http://www.w3.org/2000/svg">
<path d="M8.43311 1.5035e-06C8.71614 -0.000663319 8.93993 0.219227 8.94059 0.512413L8.94125 1.01216C10.7777 1.15609 11.9908 2.40746 11.9928 4.3265L12 9.94369C12.0026 12.036 10.6882 13.3233 8.58121 13.3267L3.43459 13.3333C1.3408 13.336 0.00988213 12.018 0.00724926 9.9197L4.41826e-06 4.36848C-0.00262402 2.43678 1.16769 1.18874 3.00412 1.02016L3.00346 0.520409C3.0028 0.227223 3.22001 0.00666634 3.50963 0.00666634C3.79925 0.00600001 4.01646 0.22589 4.01712 0.519076L4.01778 0.98551L7.92759 0.980179L7.92694 0.513746C7.92628 0.220559 8.14349 0.000669347 8.43311 1.5035e-06ZM8.70166 9.46126H8.69508C8.3923 9.46859 8.14941 9.72247 8.156 10.029C8.15665 10.3355 8.40085 10.588 8.70363 10.5947C9.01234 10.594 9.26246 10.3402 9.2618 10.027C9.2618 9.71381 9.01102 9.46126 8.70166 9.46126ZM3.27794 9.46193C2.97516 9.47526 2.7382 9.72913 2.73886 10.0356C2.75268 10.3422 3.0028 10.582 3.30558 10.568C3.60244 10.5547 3.83874 10.3008 3.82492 9.99433C3.81834 9.69448 3.57414 9.46126 3.27794 9.46193ZM5.9898 9.4586C5.68702 9.47259 5.45072 9.7258 5.45072 10.0323C5.46454 10.3388 5.71466 10.578 6.01744 10.5647C6.31364 10.5507 6.5506 10.2975 6.53678 9.99033C6.5302 9.69115 6.286 9.45793 5.9898 9.4586ZM3.27465 7.06313C2.97187 7.07646 2.73557 7.33033 2.73622 7.63684C2.74939 7.94336 3.00017 8.18324 3.30295 8.16924C3.59915 8.15592 3.83545 7.90205 3.82163 7.59553C3.81504 7.29568 3.5715 7.06247 3.27465 7.06313ZM5.98717 7.03981C5.68439 7.05314 5.44743 7.30701 5.44808 7.61352C5.46125 7.92004 5.71203 8.15925 6.01481 8.14592C6.31101 8.13193 6.54731 7.87872 6.53414 7.57221C6.5269 7.27236 6.28336 7.03914 5.98717 7.03981ZM8.69903 7.04314C8.39625 7.04981 8.15929 7.29635 8.15994 7.60286V7.61019C8.16653 7.9167 8.41665 8.14925 8.72009 8.14259C9.01629 8.13526 9.25259 7.88139 9.24601 7.57488C9.23218 7.28169 8.99457 7.04248 8.69903 7.04314ZM7.92891 2.00633L4.01909 2.01166L4.01975 2.55073C4.01975 2.83791 3.8032 3.06447 3.51358 3.06447C3.22396 3.06513 3.00609 2.83925 3.00609 2.55206L3.00543 2.03898C1.72191 2.16758 1.01169 2.92187 1.01366 4.36715L1.01432 4.57438L10.9798 4.56105V4.32784C10.9514 2.89522 10.2327 2.1436 8.94257 2.03165L8.94323 2.54473C8.94323 2.83125 8.72009 3.05847 8.43706 3.05847C8.14744 3.05914 7.92957 2.83258 7.92957 2.54606L7.92891 2.00633Z" fill="#797979"/>
</svg>
