<svg width="52" height="52" viewBox="0 0 52 52" fill="none" xmlns="http://www.w3.org/2000/svg">
<circle cx="26" cy="26" r="26" fill="#26F170" fill-opacity="0.13"/>
<path fill-rule="evenodd" clip-rule="evenodd" d="M25.9951 15C27.2169 15 28.3105 15.6337 28.9166 16.6949L37.5242 31.7444C38.1267 32.7973 38.1231 34.0539 37.5134 35.1043C36.9037 36.156 35.8149 36.7837 34.6015 36.7837H17.3731C16.1585 36.7837 15.0697 36.156 14.46 35.1043C13.8503 34.0539 13.8467 32.7973 14.4492 31.7444L23.0736 16.6925C23.6797 15.6325 24.7709 15 25.9939 15H25.9951ZM25.9939 16.7967C25.4237 16.7967 24.9158 17.0914 24.6307 17.5861L16.0088 32.6368C15.7285 33.1279 15.7309 33.7137 16.0148 34.2036C16.2986 34.6935 16.8065 34.987 17.3731 34.987H34.6015C35.1668 34.987 35.6747 34.6935 35.9586 34.2036C36.2437 33.7137 36.2461 33.1279 35.9634 32.6368L27.357 17.5861C27.0731 17.0914 26.5652 16.7967 25.9939 16.7967ZM25.9857 29.9717C26.6481 29.9717 27.1836 30.5071 27.1836 31.1695C27.1836 31.8319 26.6481 32.3673 25.9857 32.3673C25.3233 32.3673 24.7819 31.8319 24.7819 31.1695C24.7819 30.5071 25.3125 29.9717 25.9737 29.9717H25.9857ZM25.9833 22.8625C26.4792 22.8625 26.8817 23.265 26.8817 23.7609V27.4742C26.8817 27.9701 26.4792 28.3726 25.9833 28.3726C25.4874 28.3726 25.085 27.9701 25.085 27.4742V23.7609C25.085 23.265 25.4874 22.8625 25.9833 22.8625Z" fill="#26F170"/>
</svg>
