<svg width="523" height="523" viewBox="0 0 523 523" fill="none" xmlns="http://www.w3.org/2000/svg">
<path d="M275.804 60.6543V92.6981C285.532 93.2703 294.115 94.4147 302.698 96.7035C372.507 115.014 374.796 172.235 374.796 183.679V185.396H314.142V183.679C313.57 173.952 308.42 151.063 275.232 145.341C268.366 144.197 260.355 143.625 251.771 144.197C250.627 144.197 248.91 144.197 246.622 144.197C233.461 144.197 203.134 147.63 199.701 178.53C200.273 185.396 203.134 191.69 208.284 196.268C218.011 205.423 231.172 209.429 235.177 210.001L246.622 212.862V163.652C248.338 163.652 249.483 163.652 249.483 163.652H251.199H252.344C254.06 163.652 256.349 163.652 258.066 163.652C264.932 163.652 270.654 164.224 275.232 165.369V220.301L290.109 224.306C330.736 232.889 359.347 249.484 374.796 274.089C392.535 302.127 386.812 331.882 386.24 334.171C371.935 409.13 303.842 421.147 275.232 423.435C271.799 423.435 268.365 423.435 266.077 423.435C263.216 423.435 260.927 423.435 260.355 423.435C255.205 423.435 250.627 423.435 246.622 423.435C211.717 422.291 183.679 411.991 163.079 392.536C132.752 364.498 127.03 325.015 125.886 313.571V311.854L187.684 308.421L188.256 310.138C197.984 357.059 228.883 367.931 246.622 370.22V298.694L267.793 302.699H268.365H268.938L271.226 303.271L275.232 303.844V369.648C318.148 365.07 323.297 331.882 323.297 331.882C324.442 318.721 320.436 307.849 311.853 299.266C306.703 295.26 297.548 288.966 280.954 284.961L245.477 278.094C227.166 274.089 201.417 266.65 183.679 256.922C137.33 228.312 139.619 186.54 139.619 184.824C140.191 156.786 149.918 134.469 168.801 117.875C196.267 94.4147 234.033 91.5536 240.327 92.1258H247.194V60.6543C143.052 68.093 60.0818 155.641 60.0818 261.5C60.0818 367.931 143.052 454.907 247.194 462.346V442.891C249.483 442.891 251.199 442.891 253.488 442.891C255.777 442.891 258.638 442.891 260.927 442.891C262.071 442.891 263.788 442.891 266.077 442.891C269.51 442.891 272.371 442.891 275.804 442.891V462.918C379.946 455.479 462.916 367.931 462.916 262.072C463.488 155.069 380.518 68.093 275.804 60.6543ZM275.804 60.6543V92.6981C285.532 93.2703 294.115 94.4147 302.698 96.7035C372.507 115.014 374.796 172.235 374.796 183.679V185.396H314.142V183.679C313.57 173.952 308.42 151.063 275.232 145.341C268.366 144.197 260.355 143.625 251.771 144.197C250.627 144.197 248.91 144.197 246.622 144.197C233.461 144.197 203.134 147.63 199.701 178.53C200.273 185.396 203.134 191.69 208.284 196.268C218.011 205.423 231.172 209.429 235.177 210.001L246.622 212.862V163.652C248.338 163.652 249.483 163.652 249.483 163.652H251.199H252.344C254.06 163.652 256.349 163.652 258.066 163.652C264.932 163.652 270.654 164.224 275.232 165.369V220.301L290.109 224.306C330.736 232.889 359.347 249.484 374.796 274.089C392.535 302.127 386.812 331.882 386.24 334.171C371.935 409.13 303.842 421.147 275.232 423.435C271.799 423.435 268.365 423.435 266.077 423.435C263.216 423.435 260.927 423.435 260.355 423.435C255.205 423.435 250.627 423.435 246.622 423.435C211.717 422.291 183.679 411.991 163.079 392.536C132.752 364.498 127.03 325.015 125.886 313.571V311.854L187.684 308.421L188.256 310.138C197.984 357.059 228.883 367.931 246.622 370.22V298.694L267.793 302.699H268.365H268.938L271.226 303.271L275.232 303.844V369.648C318.148 365.07 323.297 331.882 323.297 331.882C324.442 318.721 320.436 307.849 311.853 299.266C306.703 295.26 297.548 288.966 280.954 284.961L245.477 278.094C227.166 274.089 201.417 266.65 183.679 256.922C137.33 228.312 139.619 186.54 139.619 184.824C140.191 156.786 149.918 134.469 168.801 117.875C196.267 94.4147 234.033 91.5536 240.327 92.1258H247.194V60.6543C143.052 68.093 60.0818 155.641 60.0818 261.5C60.0818 367.931 143.052 454.907 247.194 462.346V442.891C249.483 442.891 251.199 442.891 253.488 442.891C255.777 442.891 258.638 442.891 260.927 442.891C262.071 442.891 263.788 442.891 266.077 442.891C269.51 442.891 272.371 442.891 275.804 442.891V462.918C379.946 455.479 462.916 367.931 462.916 262.072C463.488 155.069 380.518 68.093 275.804 60.6543ZM261.499 0C116.73 0 0 117.303 0 261.5C0 406.269 117.302 523 261.499 523C406.267 523 522.998 405.697 522.998 261.5C523.57 117.303 406.267 0 261.499 0ZM261.499 492.101C134.469 492.101 30.8992 389.103 30.8992 261.5C30.8992 134.469 133.897 30.8993 261.499 30.8993C388.529 30.8993 492.099 133.897 492.099 261.5C492.099 389.103 389.101 492.101 261.499 492.101ZM275.804 60.6543V92.6981C285.532 93.2703 294.115 94.4147 302.698 96.7035C372.507 115.014 374.796 172.235 374.796 183.679V185.396H314.142V183.679C313.57 173.952 308.42 151.063 275.232 145.341C268.366 144.197 260.355 143.625 251.771 144.197C250.627 144.197 248.91 144.197 246.622 144.197C233.461 144.197 203.134 147.63 199.701 178.53C200.273 185.396 203.134 191.69 208.284 196.268C218.011 205.423 231.172 209.429 235.177 210.001L246.622 212.862V163.652C248.338 163.652 249.483 163.652 249.483 163.652H251.199H252.344C254.06 163.652 256.349 163.652 258.066 163.652C264.932 163.652 270.654 164.224 275.232 165.369V220.301L290.109 224.306C330.736 232.889 359.347 249.484 374.796 274.089C392.535 302.127 386.812 331.882 386.24 334.171C371.935 409.13 303.842 421.147 275.232 423.435C271.799 423.435 268.365 423.435 266.077 423.435C263.216 423.435 260.927 423.435 260.355 423.435C255.205 423.435 250.627 423.435 246.622 423.435C211.717 422.291 183.679 411.991 163.079 392.536C132.752 364.498 127.03 325.015 125.886 313.571V311.854L187.684 308.421L188.256 310.138C197.984 357.059 228.883 367.931 246.622 370.22V298.694L267.793 302.699H268.365H268.938L271.226 303.271L275.232 303.844V369.648C318.148 365.07 323.297 331.882 323.297 331.882C324.442 318.721 320.436 307.849 311.853 299.266C306.703 295.26 297.548 288.966 280.954 284.961L245.477 278.094C227.166 274.089 201.417 266.65 183.679 256.922C137.33 228.312 139.619 186.54 139.619 184.824C140.191 156.786 149.918 134.469 168.801 117.875C196.267 94.4147 234.033 91.5536 240.327 92.1258H247.194V60.6543C143.052 68.093 60.0818 155.641 60.0818 261.5C60.0818 367.931 143.052 454.907 247.194 462.346V442.891C249.483 442.891 251.199 442.891 253.488 442.891C255.777 442.891 258.638 442.891 260.927 442.891C262.071 442.891 263.788 442.891 266.077 442.891C269.51 442.891 272.371 442.891 275.804 442.891V462.918C379.946 455.479 462.916 367.931 462.916 262.072C463.488 155.069 380.518 68.093 275.804 60.6543ZM275.804 60.6543V92.6981C285.532 93.2703 294.115 94.4147 302.698 96.7035C372.507 115.014 374.796 172.235 374.796 183.679V185.396H314.142V183.679C313.57 173.952 308.42 151.063 275.232 145.341C268.366 144.197 260.355 143.625 251.771 144.197C250.627 144.197 248.91 144.197 246.622 144.197C233.461 144.197 203.134 147.63 199.701 178.53C200.273 185.396 203.134 191.69 208.284 196.268C218.011 205.423 231.172 209.429 235.177 210.001L246.622 212.862V163.652C248.338 163.652 249.483 163.652 249.483 163.652H251.199H252.344C254.06 163.652 256.349 163.652 258.066 163.652C264.932 163.652 270.654 164.224 275.232 165.369V220.301L290.109 224.306C330.736 232.889 359.347 249.484 374.796 274.089C392.535 302.127 386.812 331.882 386.24 334.171C371.935 409.13 303.842 421.147 275.232 423.435C271.799 423.435 268.365 423.435 266.077 423.435C263.216 423.435 260.927 423.435 260.355 423.435C255.205 423.435 250.627 423.435 246.622 423.435C211.717 422.291 183.679 411.991 163.079 392.536C132.752 364.498 127.03 325.015 125.886 313.571V311.854L187.684 308.421L188.256 310.138C197.984 357.059 228.883 367.931 246.622 370.22V298.694L267.793 302.699H268.365H268.938L271.226 303.271L275.232 303.844V369.648C318.148 365.07 323.297 331.882 323.297 331.882C324.442 318.721 320.436 307.849 311.853 299.266C306.703 295.26 297.548 288.966 280.954 284.961L245.477 278.094C227.166 274.089 201.417 266.65 183.679 256.922C137.33 228.312 139.619 186.54 139.619 184.824C140.191 156.786 149.918 134.469 168.801 117.875C196.267 94.4147 234.033 91.5536 240.327 92.1258H247.194V60.6543C143.052 68.093 60.0818 155.641 60.0818 261.5C60.0818 367.931 143.052 454.907 247.194 462.346V442.891C249.483 442.891 251.199 442.891 253.488 442.891C255.777 442.891 258.638 442.891 260.927 442.891C262.071 442.891 263.788 442.891 266.077 442.891C269.51 442.891 272.371 442.891 275.804 442.891V462.918C379.946 455.479 462.916 367.931 462.916 262.072C463.488 155.069 380.518 68.093 275.804 60.6543ZM275.804 60.6543V92.6981C285.532 93.2703 294.115 94.4147 302.698 96.7035C372.507 115.014 374.796 172.235 374.796 183.679V185.396H314.142V183.679C313.57 173.952 308.42 151.063 275.232 145.341C268.366 144.197 260.355 143.625 251.771 144.197C250.627 144.197 248.91 144.197 246.622 144.197C233.461 144.197 203.134 147.63 199.701 178.53C200.273 185.396 203.134 191.69 208.284 196.268C218.011 205.423 231.172 209.429 235.177 210.001L246.622 212.862V163.652C248.338 163.652 249.483 163.652 249.483 163.652H251.199H252.344C254.06 163.652 256.349 163.652 258.066 163.652C264.932 163.652 270.654 164.224 275.232 165.369V220.301L290.109 224.306C330.736 232.889 359.347 249.484 374.796 274.089C392.535 302.127 386.812 331.882 386.24 334.171C371.935 409.13 303.842 421.147 275.232 423.435C271.799 423.435 268.365 423.435 266.077 423.435C263.216 423.435 260.927 423.435 260.355 423.435C255.205 423.435 250.627 423.435 246.622 423.435C211.717 422.291 183.679 411.991 163.079 392.536C132.752 364.498 127.03 325.015 125.886 313.571V311.854L187.684 308.421L188.256 310.138C197.984 357.059 228.883 367.931 246.622 370.22V298.694L267.793 302.699H268.365H268.938L271.226 303.271L275.232 303.844V369.648C318.148 365.07 323.297 331.882 323.297 331.882C324.442 318.721 320.436 307.849 311.853 299.266C306.703 295.26 297.548 288.966 280.954 284.961L245.477 278.094C227.166 274.089 201.417 266.65 183.679 256.922C137.33 228.312 139.619 186.54 139.619 184.824C140.191 156.786 149.918 134.469 168.801 117.875C196.267 94.4147 234.033 91.5536 240.327 92.1258H247.194V60.6543C143.052 68.093 60.0818 155.641 60.0818 261.5C60.0818 367.931 143.052 454.907 247.194 462.346V442.891C249.483 442.891 251.199 442.891 253.488 442.891C255.777 442.891 258.638 442.891 260.927 442.891C262.071 442.891 263.788 442.891 266.077 442.891C269.51 442.891 272.371 442.891 275.804 442.891V462.918C379.946 455.479 462.916 367.931 462.916 262.072C463.488 155.069 380.518 68.093 275.804 60.6543Z" fill="white" fill-opacity="0.04"/>
</svg>
