<svg width="52" height="52" viewBox="0 0 52 52" fill="none" xmlns="http://www.w3.org/2000/svg">
<circle cx="26" cy="26" r="26" fill="#26F170" fill-opacity="0.13"/>
<path d="M37.1576 22.6758L29.8887 15.4016C28.989 14.504 27.7704 14 26.5 14C25.2296 14 24.011 14.504 23.1113 15.4016L15.8424 22.6758C15.5745 22.9422 15.362 23.2591 15.2174 23.6083C15.0728 23.9574 14.9989 24.3318 15 24.7097V34.1233C15 34.8862 15.3029 35.6179 15.8421 36.1574C16.3812 36.6969 17.1125 37 17.875 37H35.125C35.8875 37 36.6188 36.6969 37.1579 36.1574C37.6971 35.6179 38 34.8862 38 34.1233V24.7097C38.0011 24.3318 37.9272 23.9574 37.7826 23.6083C37.638 23.2591 37.4255 22.9422 37.1576 22.6758ZM29.375 35.0822H23.625V31.3098C23.625 30.5469 23.9279 29.8152 24.4671 29.2757C25.0062 28.7362 25.7375 28.4331 26.5 28.4331C27.2625 28.4331 27.9938 28.7362 28.5329 29.2757C29.0721 29.8152 29.375 30.5469 29.375 31.3098V35.0822ZM36.0833 34.1233C36.0833 34.3776 35.9824 34.6215 35.8026 34.8013C35.6229 34.9812 35.3792 35.0822 35.125 35.0822H31.2917V31.3098C31.2917 30.0383 30.7868 28.8187 29.8882 27.9196C28.9896 27.0204 27.7708 26.5153 26.5 26.5153C25.2292 26.5153 24.0104 27.0204 23.1118 27.9196C22.2132 28.8187 21.7083 30.0383 21.7083 31.3098V35.0822H17.875C17.6208 35.0822 17.3771 34.9812 17.1974 34.8013C17.0176 34.6215 16.9167 34.3776 16.9167 34.1233V24.7097C16.9176 24.4556 17.0184 24.212 17.1975 24.0317L24.4664 16.7603C25.0066 16.2223 25.7378 15.9203 26.5 15.9203C27.2622 15.9203 27.9934 16.2223 28.5336 16.7603L35.8025 24.0346C35.9809 24.2142 36.0817 24.4565 36.0833 24.7097V34.1233Z" fill="#26F170"/>
</svg>
