<svg width="235" height="75" viewBox="0 0 235 75" fill="none" xmlns="http://www.w3.org/2000/svg">
<path d="M33.6478 55.6055C31.0413 55.6055 28.9087 57.7381 28.9087 60.3446C28.9087 62.9511 31.0413 65.0837 33.6478 65.0837C36.2543 65.0837 38.3869 62.9511 38.3869 60.3446C38.3079 57.7381 36.2543 55.6055 33.6478 55.6055Z" fill="url(#paint0_linear_1_1795)"/>
<path d="M27.2508 65.4004C24.6443 65.4004 22.5117 67.533 22.5117 70.1395C22.5117 72.746 24.6443 74.8786 27.2508 74.8786C29.8574 74.8786 31.99 72.746 31.99 70.1395C31.911 67.533 29.8574 65.4004 27.2508 65.4004Z" fill="url(#paint1_linear_1_1795)"/>
<path d="M25.7487 60.3446C25.7487 57.7381 23.6161 55.6055 21.0096 55.6055C18.4031 55.6055 16.2705 57.7381 16.2705 60.3446C16.2705 62.9511 18.4031 65.0837 21.0096 65.0837C23.6951 65.0047 25.7487 62.9511 25.7487 60.3446Z" fill="url(#paint2_linear_1_1795)"/>
<path d="M58.6864 55.6055C56.0799 55.6055 53.9473 57.7381 53.9473 60.3446C53.9473 62.9511 56.0799 65.0837 58.6864 65.0837C61.2929 65.0837 63.4255 62.9511 63.4255 60.3446C63.4255 57.7381 61.2929 55.6055 58.6864 55.6055Z" fill="url(#paint3_linear_1_1795)"/>
<path d="M140.673 28.8292V40.2031H138.066C137.592 40.2031 137.277 39.9661 137.277 39.4132V30.1719H127.403V39.5712C127.403 39.7292 127.245 39.9661 126.929 40.0451C126.614 40.2031 126.219 40.2821 125.745 40.2821C125.192 40.2821 124.797 40.2031 124.481 40.0451C124.165 39.8871 124.007 39.7292 124.007 39.5712V30.1719H114.055V39.5712C114.055 39.7292 113.976 39.8872 113.818 39.9661C113.66 40.0451 113.502 40.1241 113.344 40.1241H109.237H103.155H97.073H90.9911H84.9092H80.2491C79.8542 40.1241 79.6172 39.8871 79.6172 39.4922V28.9872H69.6651V39.2553C69.6651 39.8082 69.4281 40.0451 69.0332 40.0451H64.373H59.16C58.7651 40.0451 58.5281 39.8082 58.5281 39.4132V28.9082H48.576V39.1763C48.576 39.7292 48.339 39.9661 47.9441 39.9661H43.284H37.2811H37.2021H31.1992H31.1202H25.1173H19.0355H12.9536H10.584C10.1101 39.9661 9.79418 39.8082 9.79418 39.4132V10.9785H0V39.4132C0 40.835 0.31594 42.2567 0.868838 43.5205C1.42174 44.7842 2.21159 45.969 3.15941 46.9168C4.10724 47.8647 5.21303 48.6545 6.55578 49.2074C7.89853 49.7603 9.24129 50.0763 10.663 50.0763H13.1116H19.1934H25.2753H31.2782H31.3572H37.3601H37.4391H43.4419H48.1021C50.1557 50.0763 51.9724 49.6023 53.6311 48.5755C55.2897 49.6023 57.1854 50.0763 59.318 50.0763H64.531H69.1912C71.2448 50.0763 73.0614 49.6023 74.7201 48.5755C76.3788 49.6023 78.2745 50.0763 80.4071 50.0763H85.1462H91.2281H97.31H103.392H109.474H113.581C114.687 50.0763 115.714 49.9973 116.582 49.7603C117.53 49.5234 118.399 49.1284 119.189 48.5755C119.979 49.1284 121.085 49.5234 122.348 49.8393C123.612 50.0763 124.797 50.2342 125.824 50.2342C126.85 50.2342 128.035 50.0763 129.378 49.7603C130.721 49.4444 131.748 49.0495 132.616 48.4966C134.275 49.6023 136.092 50.1552 138.224 50.1552H150.862V28.9082H140.673V28.8292Z" fill="url(#paint4_linear_1_1795)"/>
<path d="M71.2445 55.6055C68.638 55.6055 66.5054 57.7381 66.5054 60.3446C66.5054 62.9511 68.638 65.0837 71.2445 65.0837C73.851 65.0837 75.9836 62.9511 75.9836 60.3446C75.9836 57.7381 73.851 55.6055 71.2445 55.6055Z" fill="url(#paint5_linear_1_1795)"/>
<path d="M87.7539 22.0371H86.7271V23.0639H87.7539V22.0371Z" fill="white"/>
<path d="M82.2233 18.0083C82.3023 17.7714 82.3813 17.5344 82.3813 17.2975C82.3813 16.9815 82.3023 16.7446 82.1443 16.4286C81.9864 16.1917 81.8284 15.9547 81.5914 15.7967C81.5914 15.7967 81.5125 15.7177 81.3545 15.6388C81.2755 15.5598 81.1175 15.4808 80.9596 15.4018C80.8016 15.3228 80.6436 15.1649 80.4857 15.0859C80.3277 15.0069 80.1697 14.8489 80.0117 14.7699C79.8538 14.6909 79.7748 14.612 79.6168 14.533C79.5378 14.454 79.4588 14.454 79.4588 14.375L78.906 15.2438L80.8806 16.5866C80.9596 16.6656 81.0386 16.7446 81.1175 16.8235C81.1965 16.9025 81.1965 17.0605 81.1965 17.1395C81.1965 17.2975 81.1175 17.4554 80.9596 17.6134C80.8016 17.7714 80.6436 17.7714 80.4857 17.7714H78.0371V18.8772H80.4857C80.7226 18.8772 80.9596 18.7982 81.1965 18.7192C81.4335 18.6402 81.5914 18.4822 81.7494 18.3243C82.0654 18.4033 82.1443 18.2453 82.2233 18.0083Z" fill="white"/>
<path d="M56.4726 15.797C56.3146 15.639 56.0777 15.4811 55.8407 15.4021C55.6038 15.3231 55.3668 15.2441 55.0509 15.2441H51.6545C51.3386 15.2441 51.1016 15.0861 50.8647 14.8492L50.7067 14.6912L49.9958 15.3231L50.0748 15.4811C50.2328 15.718 50.4697 15.955 50.7857 16.034C50.5487 16.3499 50.4697 16.7448 50.4697 17.0608C50.4697 17.3767 50.5487 17.6137 50.7067 17.9296H49.6799H49.048C48.811 17.9296 48.6531 17.8506 48.4951 17.6926C48.3371 17.5347 48.2581 17.3767 48.2581 17.2187V12.5586H47.1523V17.2187C47.1523 17.4557 47.2313 17.6926 47.3103 17.9296C47.3893 18.1666 47.5473 18.3245 47.7052 18.4825C47.8632 18.6405 48.1002 18.7984 48.2581 18.8774C48.4951 18.9564 48.7321 19.0354 48.969 19.0354H49.5219H54.9719C55.2878 19.0354 55.5248 18.9564 55.7617 18.8774C55.9987 18.7984 56.2357 18.6405 56.3936 18.4825C56.5516 18.3245 56.7096 18.0876 56.7886 17.8506C56.8675 17.6137 56.9465 17.3767 56.9465 17.0608C56.9465 16.8238 56.8675 16.5868 56.7886 16.3499C56.7886 16.1919 56.6306 15.955 56.4726 15.797ZM53.0762 17.7716C52.9183 17.9296 52.6813 18.0086 52.4444 18.0086C52.2074 18.0086 51.9705 17.9296 51.8125 17.7716C51.6545 17.6137 51.5755 17.3767 51.5755 17.1397C51.5755 16.9028 51.6545 16.7448 51.8125 16.5868C51.9705 16.4289 52.2074 16.3499 52.4444 16.3499C52.6813 16.3499 52.9183 16.4289 53.0762 16.5868C53.2342 16.7448 53.3132 16.9818 53.3132 17.1397C53.3922 17.3767 53.2342 17.6137 53.0762 17.7716ZM55.6828 17.7716C55.5248 17.9296 55.2878 18.0086 55.0509 18.0086H54.261C54.419 17.7716 54.498 17.4557 54.498 17.1397C54.498 16.8238 54.419 16.5869 54.261 16.2709H55.0509C55.2878 16.2709 55.5248 16.3499 55.6828 16.5079C55.8407 16.6658 55.9197 16.9028 55.9197 17.1397C55.9197 17.3767 55.8407 17.6137 55.6828 17.7716Z" fill="white"/>
<path d="M77.2474 12.7168H76.1416V19.1146H77.2474V12.7168Z" fill="white"/>
<path d="M45.1796 17.7716C44.8637 17.6926 44.5477 17.6136 44.3108 17.5346C44.0738 17.4556 43.7579 17.4556 43.5209 17.3766V16.9027C43.5209 16.8237 43.5209 16.7447 43.5999 16.6658C43.6789 16.5868 43.6789 16.5078 43.7579 16.4288C43.8368 16.3498 43.9158 16.3498 43.9948 16.2708C44.0738 16.1918 44.1528 16.1918 44.3108 16.1918H46.1274V15.165H44.3108C44.0738 15.165 43.7579 15.244 43.5209 15.323C43.2839 15.402 43.126 15.56 42.968 15.7179C42.81 15.8759 42.6521 16.1129 42.5731 16.3498C42.4941 16.5868 42.4151 16.8237 42.4151 17.0607V18.0875L44.9426 18.7194C45.1006 18.7194 45.1796 18.7984 45.2586 18.9563C45.3376 19.1143 45.4166 19.1933 45.4166 19.3513C45.4166 19.5092 45.3376 19.7462 45.1796 19.8252C45.0216 19.9831 44.8637 20.0621 44.6267 20.0621H41.9412C41.6253 20.0621 41.3883 19.9831 41.2303 19.7462C40.9934 19.5882 40.9144 19.3513 40.9144 19.0353V16.7447H39.8086V19.0353C39.8086 19.3513 39.8876 19.5882 39.9666 19.8252C40.0455 20.0621 40.2035 20.2991 40.4405 20.4571C40.5984 20.615 40.8354 20.773 41.1513 20.931C41.3883 21.01 41.7042 21.0889 42.0202 21.0889H44.7057C44.9426 21.0889 45.1796 21.01 45.4166 20.931C45.6535 20.852 45.8115 20.694 45.9694 20.536C46.1274 20.3781 46.2854 20.2201 46.3644 19.9831C46.4434 19.7462 46.5223 19.5092 46.5223 19.2723C46.5223 18.8773 46.3644 18.4824 46.1274 18.2455C45.8905 18.0875 45.5745 17.9295 45.1796 17.7716Z" fill="white"/>
<path d="M74.1688 15.7973C73.9318 15.7183 73.7739 15.6393 73.5369 15.4814C73.3789 15.4024 73.142 15.3234 72.984 15.2444C72.7471 15.1654 72.5891 15.0864 72.4311 15.0075C72.1152 14.8495 71.7992 14.7705 71.4043 14.7705C70.9304 14.7705 70.5355 14.8495 70.1405 15.0865C69.8246 15.3234 69.5087 15.6393 69.2717 16.0343L69.1137 16.1922L69.9826 16.6662L70.0616 16.5082C70.4565 16.0343 70.8514 15.7973 71.3253 15.7973C71.4833 15.7973 71.6413 15.7973 71.7992 15.8763L73.142 16.5082L72.4311 17.377C72.2731 17.535 72.1152 17.693 71.9572 17.7719C71.7992 17.8509 71.5623 17.9299 71.4043 17.9299H68.7978H68.5608C68.4029 17.9299 68.1659 17.8509 68.0869 17.7719C67.9289 17.614 67.85 17.456 67.85 17.298V15.4814H66.7442V16.8241C66.7442 16.9821 66.7442 17.1401 66.6652 17.298C66.5862 17.456 66.5072 17.535 66.4282 17.693C66.3492 17.7719 66.1913 17.8509 66.0333 17.9299C65.8753 18.0089 65.7173 18.0089 65.5594 18.0089H62.084C61.9261 18.0089 61.7681 18.0089 61.6101 17.9299C61.4521 17.8509 61.2942 17.7719 61.2152 17.693C61.1362 17.614 61.0572 17.456 60.9782 17.298C60.8993 17.1401 60.8992 16.9821 60.8992 16.8241V15.4814H59.7935V16.8241C59.7935 17.1401 59.8724 17.456 59.9514 17.693C60.1094 17.9299 60.2674 18.2459 60.4253 18.4038C60.6623 18.6408 60.8992 18.7988 61.1362 18.8777C61.4521 18.9567 61.6891 19.0357 62.084 19.0357H65.5594C65.8753 19.0357 66.1913 18.9567 66.4282 18.8777C66.7442 18.7988 66.9811 18.5618 67.2181 18.4038C67.376 18.6408 67.613 18.7988 67.85 18.8777C68.0869 19.0357 68.3239 19.0357 68.6398 19.0357H68.8768H71.6413C72.4311 19.0357 73.063 18.7198 73.5369 18.0879L74.4057 16.9031C74.4847 16.9031 74.5637 16.9031 74.7217 16.9031C74.8797 16.9031 74.9586 16.9031 75.1166 16.9031C75.2746 16.9031 75.4326 16.9031 75.5115 16.9031V15.8763H74.7217C74.4847 15.9553 74.3268 15.8763 74.1688 15.7973Z" fill="white"/>
<path d="M28.8305 18.4034C28.5936 18.0875 28.2776 17.9295 27.8827 17.7716C27.5668 17.6926 27.2508 17.6136 27.0139 17.5346C26.7769 17.4556 26.461 17.4556 26.224 17.3766V16.9027C26.224 16.8237 26.224 16.7447 26.303 16.6658C26.382 16.5868 26.382 16.5078 26.461 16.4288C26.54 16.3498 26.619 16.3498 26.6979 16.2708C26.7769 16.1918 26.8559 16.1918 27.0139 16.1918H28.8305V15.165H27.0139C26.7769 15.165 26.461 15.244 26.224 15.323C25.9871 15.402 25.8291 15.56 25.6711 15.7179C25.5132 15.8759 25.3552 16.1129 25.2762 16.3498C25.1972 16.5868 25.1182 16.8237 25.1182 17.0607V18.0875L27.6458 18.7194C27.8037 18.7194 27.8827 18.7984 27.9617 18.9563C28.0407 19.1143 28.1197 19.1933 28.1197 19.3513C28.1197 19.5092 28.0407 19.7462 27.8827 19.8252C27.7247 19.9831 27.5668 20.0621 27.3298 20.0621H24.6443C24.3284 20.0621 24.0914 19.9831 23.9335 19.7462C23.6965 19.5882 23.6175 19.3513 23.6175 19.0353V16.7447H22.5117V19.0353C22.5117 19.3513 22.5907 19.5882 22.6697 19.8252C22.7487 20.0621 22.9066 20.2991 23.1436 20.4571C23.3016 20.615 23.5385 20.773 23.8545 20.931C24.0914 21.01 24.4074 21.0889 24.7233 21.0889H27.4088C27.6458 21.0889 27.8827 21.01 28.1197 20.931C28.3566 20.852 28.5146 20.694 28.6726 20.536C28.8305 20.3781 28.9885 20.2201 29.0675 19.9831C29.1465 19.7462 29.2255 19.5092 29.2255 19.2723C29.1465 19.0353 29.0675 18.7194 28.8305 18.4034Z" fill="white"/>
<path d="M72.0346 13.2695H71.0078V14.2963H72.0346V13.2695Z" fill="white"/>
<path d="M65.2421 14.5332H64.2153V15.56H65.2421V14.5332Z" fill="white"/>
<path d="M131.274 13.8223H130.248V14.8491H131.274V13.8223Z" fill="white"/>
<path d="M37.2801 12.7168H36.1743V19.1146H37.2801V12.7168Z" fill="white"/>
<path d="M63.5034 14.5332H62.4766V15.56H63.5034V14.5332Z" fill="white"/>
<path d="M32.0698 13.2695H31.043V14.2963H32.0698V13.2695Z" fill="white"/>
<path d="M34.2018 19.0358C34.2018 19.5097 34.0438 19.9046 33.7279 20.1416C33.5699 20.2995 33.333 20.3785 33.175 20.4575C32.938 20.5365 32.7011 20.6155 32.4641 20.7735L32.3062 20.8524L32.6221 21.8003L32.859 21.7213C33.254 21.6423 33.5699 21.4843 33.8859 21.3264C34.2018 21.1684 34.4388 21.0104 34.6757 20.8524C34.9127 20.6155 35.0706 20.3785 35.2286 20.1416C35.3866 19.8256 35.4656 19.5097 35.4656 19.1148V15.4814H34.3598V19.0358H34.2018Z" fill="white"/>
<path d="M31.0412 19.0358C31.0412 19.5097 30.8832 19.9046 30.5672 20.1416C30.4093 20.2995 30.1723 20.3785 30.0143 20.4575C29.7774 20.5365 29.5404 20.6155 29.3035 20.7735L29.1455 20.8524L29.4614 21.8003L29.6984 21.7213C30.0933 21.6423 30.4093 21.4843 30.7252 21.3264C31.0412 21.1684 31.2781 21.0104 31.5151 20.8524C31.752 20.6155 31.91 20.3785 32.068 20.1416C32.2259 19.8256 32.3049 19.5097 32.3049 19.1148V15.4814H31.1991V19.0358H31.0412Z" fill="white"/>
<path d="M99.2045 20.3779H98.1777V21.4047H99.2045V20.3779Z" fill="white"/>
<path d="M118.716 20.3779H117.689V21.4047H118.716V20.3779Z" fill="white"/>
<path d="M120.453 20.3779H119.426V21.4047H120.453V20.3779Z" fill="white"/>
<path d="M119.978 17.2982C119.978 17.3772 119.978 17.4562 119.899 17.5352C119.899 17.6142 119.82 17.6932 119.741 17.7721C119.662 17.8511 119.583 17.9301 119.504 17.9301C119.425 18.0091 119.346 18.0091 119.188 18.0091H117.609H117.451C117.293 18.0091 117.056 17.9301 116.977 17.8511C116.819 17.6932 116.74 17.5352 116.74 17.3772C116.74 17.1403 116.74 16.9033 116.661 16.7453C116.582 16.5874 116.503 16.4294 116.424 16.2714C116.345 16.1135 116.187 15.9555 116.029 15.8765C115.871 15.7975 115.713 15.6395 115.555 15.5606L113.975 14.6127L115.555 13.033L114.765 12.2432L112.712 14.2178V15.0077L115.081 16.4294C115.16 16.5084 115.239 16.5084 115.318 16.5874C115.397 16.6663 115.476 16.6663 115.555 16.7453C115.634 16.8243 115.634 16.9033 115.713 16.9823C115.713 17.0613 115.792 17.2192 115.792 17.2982C115.792 17.4562 115.792 17.5352 115.713 17.6142C115.634 17.6932 115.555 17.7721 115.476 17.8511C115.397 17.9301 115.318 17.9301 115.239 18.0091C115.16 18.0091 115.081 18.0091 115.081 18.0091H112.712H112.08C111.843 18.0091 111.685 17.9301 111.527 17.7721C111.369 17.6142 111.29 17.4562 111.29 17.2982V15.5606H110.184V17.2982C110.184 17.5352 110.105 17.6932 109.947 17.8511C109.789 18.0091 109.631 18.0881 109.473 18.0881H108.604H108.051C107.814 18.0881 107.656 18.0091 107.499 17.8511C107.341 17.6932 107.262 17.5352 107.262 17.3772V12.7171H106.156V17.3772C106.156 17.6142 106.235 17.8511 106.314 18.0881C106.393 18.325 106.551 18.483 106.709 18.641C106.867 18.799 107.104 18.9569 107.262 19.0359C107.499 19.1149 107.735 19.1939 107.972 19.1939H108.525H109.394C109.868 19.1939 110.263 19.0359 110.658 18.72C110.737 18.799 110.895 18.8779 111.053 18.9569C111.211 19.0359 111.369 19.0359 111.606 19.1149C111.764 19.1149 112.001 19.1939 112.159 19.1939C112.317 19.1939 112.554 19.1939 112.712 19.1939H115.081C115.555 19.1939 115.95 19.0359 116.345 18.72C116.74 19.0359 117.135 19.1939 117.609 19.1939H117.767H119.346C119.583 19.1939 119.82 19.1149 120.057 19.0359C120.294 18.9569 120.452 18.799 120.689 18.641C120.847 18.483 121.005 18.325 121.084 18.0881C121.163 17.8511 121.242 17.6142 121.242 17.3772V15.6395H120.136V17.2982H119.978Z" fill="white"/>
<path d="M109.948 20.3779H108.921V21.4047H109.948V20.3779Z" fill="white"/>
<path d="M111.685 20.3779H110.658V21.4047H111.685V20.3779Z" fill="white"/>
<path d="M149.361 15.5602V18.0087H148.808C148.65 18.0087 148.492 17.9297 148.334 17.8507C148.255 17.7717 148.176 17.6138 148.176 17.3768V15.7971H146.992V17.2978C146.992 17.5348 146.913 17.6928 146.755 17.7717C146.597 17.8507 146.439 18.0087 146.281 18.0087C146.202 18.0087 146.123 18.0087 146.044 18.0087C145.965 18.0087 145.886 18.0087 145.807 17.9297C145.728 17.8507 145.649 17.8507 145.57 17.7717C145.491 17.6928 145.491 17.6138 145.491 17.4558V15.7971H144.385V17.2978C144.385 17.4558 144.306 17.6928 144.148 17.7717C143.99 17.9297 143.832 18.0087 143.595 18.0087H142.726H142.253C142.016 18.0087 141.858 17.9297 141.7 17.7717C141.542 17.6138 141.463 17.4558 141.463 17.2978V12.6377H140.357V17.2978C140.357 17.5348 140.436 17.7717 140.515 18.0087C140.594 18.2457 140.752 18.4036 140.91 18.5616C141.068 18.7196 141.305 18.8775 141.463 18.9565C141.7 19.0355 141.937 19.1145 142.174 19.1145H142.726H143.595C144.069 19.1145 144.543 18.9565 144.938 18.5616C145.096 18.7196 145.333 18.8775 145.57 18.9565C145.807 19.0355 146.044 19.1145 146.281 19.1145C146.834 19.1145 147.229 18.9565 147.545 18.6406C147.861 18.9565 148.334 19.1145 148.808 19.1145H150.388V15.5602H149.361Z" fill="white"/>
<path d="M139.092 15.7971C138.934 15.6391 138.697 15.4812 138.461 15.4022C138.224 15.3232 137.987 15.2442 137.671 15.2442H135.064V16.35H135.696V17.3768C135.696 17.6138 135.617 17.7717 135.459 17.8507C135.301 18.0087 135.143 18.0087 134.985 18.0087H134.669H134.116C133.879 18.0087 133.721 17.9297 133.563 17.7717C133.405 17.6138 133.326 17.4558 133.326 17.2978V12.6377H132.221V17.2978C132.221 17.5348 132.3 17.7717 132.379 18.0087C132.458 18.2457 132.616 18.4036 132.774 18.5616C132.932 18.7196 133.169 18.8775 133.326 18.9565C133.563 19.0355 133.8 19.1145 134.037 19.1145H134.59H134.906C135.143 19.1145 135.38 19.0355 135.617 18.9565C135.854 18.8775 136.091 18.7196 136.249 18.5616C136.407 18.7196 136.644 18.8775 136.881 18.9565C137.118 19.0355 137.355 19.1145 137.671 19.1145C137.987 19.1145 138.224 19.0355 138.461 18.9565C138.697 18.8775 138.934 18.7196 139.092 18.5616C139.25 18.4036 139.408 18.1667 139.566 17.9297C139.645 17.6928 139.724 17.4558 139.724 17.1399C139.724 16.9029 139.645 16.587 139.566 16.35C139.487 16.192 139.329 15.9551 139.092 15.7971ZM138.54 17.5348C138.461 17.6138 138.461 17.6928 138.303 17.8507C138.224 17.9297 138.145 18.0087 137.987 18.0087C137.908 18.0877 137.75 18.0877 137.592 18.0877C137.434 18.0877 137.355 18.0877 137.276 18.0087C137.197 17.9297 137.039 17.9297 136.96 17.8507C136.881 17.7717 136.802 17.6928 136.723 17.5348C136.644 17.4558 136.644 17.2978 136.644 17.2188V16.35H137.592C137.829 16.35 138.066 16.429 138.224 16.587C138.382 16.7449 138.461 16.9819 138.461 17.2188C138.619 17.2978 138.619 17.3768 138.54 17.5348Z" fill="white"/>
<path d="M130.247 17.2982C130.247 17.3771 130.247 17.4561 130.168 17.5351C130.168 17.6141 130.089 17.6931 130.01 17.7721C129.931 17.851 129.852 17.93 129.773 17.93C129.694 18.009 129.615 18.009 129.457 18.009H128.746H128.509C128.272 18.009 128.114 17.93 127.956 17.8511C127.798 17.6931 127.719 17.5351 127.719 17.3771V14.8496H126.613V15.3235H125.745C125.429 15.3235 125.192 15.4025 124.955 15.4815C124.718 15.5605 124.481 15.7185 124.323 15.8764C124.165 16.0344 124.007 16.2713 123.928 16.5083C123.849 16.7453 123.77 16.9822 123.77 17.2982C123.77 17.5351 123.849 17.8511 123.928 18.088C124.007 18.325 124.165 18.5619 124.323 18.7199C124.481 18.8779 124.718 19.0358 124.955 19.1148C125.192 19.1938 125.429 19.2728 125.745 19.2728C125.982 19.2728 126.298 19.1938 126.535 19.1148C126.771 19.0358 127.008 18.8779 127.166 18.7199C127.324 18.8779 127.561 19.0358 127.798 19.1148C128.035 19.1938 128.272 19.2728 128.509 19.2728H128.746H129.457C129.694 19.2728 129.931 19.1938 130.168 19.1148C130.405 19.0358 130.563 18.8779 130.8 18.7199C130.958 18.5619 131.116 18.4039 131.195 18.167C131.274 17.93 131.353 17.6931 131.353 17.4561V15.7184H130.247V17.2982ZM126.692 17.1402C126.692 17.3771 126.613 17.6141 126.456 17.7721C126.298 17.93 126.061 18.009 125.824 18.009C125.666 18.009 125.587 18.009 125.508 17.93C125.429 17.8511 125.271 17.851 125.192 17.7721C125.113 17.6931 125.034 17.6141 125.034 17.4561C124.955 17.3771 124.955 17.2192 124.955 17.1402C124.955 17.0612 124.955 16.9032 125.034 16.8242C125.113 16.7453 125.113 16.5873 125.192 16.5083C125.271 16.4293 125.35 16.3503 125.508 16.3503C125.587 16.2713 125.745 16.2713 125.824 16.2713H126.771L126.692 17.1402Z" fill="white"/>
<path d="M101.021 20.3779H99.9946V21.4047H101.021V20.3779Z" fill="white"/>
<path d="M87.7535 17.298C87.7535 17.377 87.7535 17.456 87.6745 17.535C87.6745 17.6139 87.5955 17.6929 87.5165 17.7719C87.4375 17.8509 87.3586 17.9299 87.2796 17.9299C87.2006 18.0089 87.1216 18.0089 86.9636 18.0089H85.7789C85.6999 18.0089 85.5419 18.0089 85.4629 18.0089C85.3839 18.0089 85.226 17.9299 85.147 17.9299C85.068 17.8509 84.989 17.7719 84.91 17.6929C84.831 17.6139 84.831 17.5349 84.831 17.377V15.4023H83.7252V19.1147C83.7252 19.5886 83.5673 19.9835 83.2513 20.2205C83.0934 20.3784 82.8564 20.4574 82.6984 20.5364C82.4615 20.6154 82.2245 20.6944 81.9876 20.8523L81.8296 20.9313L82.0665 21.8791L82.3035 21.8002C82.6984 21.7212 83.0144 21.5632 83.3303 21.4052C83.6462 21.2473 83.8832 21.0893 84.1202 20.8523C84.3571 20.6154 84.5151 20.3784 84.6731 20.1415C84.831 19.8255 84.91 19.5096 84.91 19.1147V18.9567C85.068 19.0357 85.226 19.0357 85.3049 19.0357C85.4629 19.0357 85.5419 19.0357 85.6999 19.0357C85.7789 19.0357 85.7789 19.0357 85.7789 19.0357C85.7789 19.0357 85.7789 19.0357 85.8578 19.0357H87.0426C87.2796 19.0357 87.5165 18.9567 87.7535 18.8777C87.9904 18.7987 88.1484 18.6407 88.3854 18.4828C88.5433 18.3248 88.7013 18.1668 88.7803 17.9299C88.8593 17.6929 88.9383 17.456 88.9383 17.219V15.4813H87.7535V17.298Z" fill="white"/>
<path d="M100.153 22.0361H99.1265V23.0629H100.153V22.0361Z" fill="white"/>
<path d="M88.622 20.3779H87.5952V21.4047H88.622V20.3779Z" fill="white"/>
<path d="M104.025 19.0358C104.025 19.5097 103.867 19.9046 103.551 20.1416C103.393 20.2995 103.156 20.3785 102.998 20.4575C102.761 20.5365 102.524 20.6155 102.287 20.7735L102.129 20.8524L102.445 21.8003L102.682 21.7213C103.077 21.6423 103.393 21.4843 103.709 21.3264C104.025 21.1684 104.262 21.0104 104.498 20.8524C104.735 20.6155 104.893 20.3785 105.051 20.1416C105.209 19.8256 105.288 19.5097 105.288 19.1148V15.4814H104.183V19.0358H104.025Z" fill="white"/>
<path d="M110.816 22.0371H109.79V23.0639H110.816V22.0371Z" fill="white"/>
<path d="M102.918 16.9822V15.9554H102.128C101.97 15.9554 101.733 15.9554 101.654 15.8764C101.417 15.7974 101.259 15.7184 101.022 15.5605C100.864 15.4815 100.627 15.4025 100.469 15.3235C100.232 15.2445 100.074 15.1656 99.9163 15.0866C99.6004 14.9286 99.2844 14.8496 98.8895 14.8496C98.4156 14.8496 98.0206 14.9286 97.6257 15.1656C97.3098 15.4025 96.9938 15.7184 96.7569 16.1134L96.5989 16.2713L97.4678 16.7453L97.5467 16.5873C97.9417 16.1134 98.3366 15.8764 98.8105 15.8764C98.9685 15.8764 99.1264 15.8764 99.2844 15.9554L100.627 16.5873L99.9163 17.4561C99.7583 17.6141 99.6004 17.7721 99.4424 17.8511C99.2844 17.93 99.0475 18.009 98.8895 18.009H96.125H95.888C95.6511 18.009 95.4931 17.93 95.3352 17.8511C95.1772 17.6931 95.0982 17.5351 95.0982 17.3771V14.8496H93.9924V15.3235H93.1236C92.8076 15.3235 92.5707 15.4025 92.3337 15.4815C92.0967 15.5605 91.8598 15.7185 91.7018 15.8764C91.5439 16.0344 91.3859 16.2713 91.3069 16.5083C91.2279 16.7453 91.1489 16.9822 91.1489 17.2982C91.1489 17.5351 91.2279 17.8511 91.3069 18.088C91.3859 18.325 91.5439 18.5619 91.7018 18.7199C91.8598 18.8779 92.0967 19.0358 92.3337 19.1148C92.5707 19.1938 92.8076 19.2728 93.1236 19.2728C93.3605 19.2728 93.6765 19.1938 93.9134 19.1148C94.1504 19.0358 94.3873 18.8779 94.5453 18.7199C94.7033 18.8779 94.9402 19.0358 95.1772 19.1148C95.4141 19.1938 95.6511 19.2728 95.888 19.2728H96.125H98.8895C99.6793 19.2728 100.39 18.9568 100.785 18.325L101.654 17.1402C101.733 17.1402 101.812 17.1402 101.97 17.1402C102.128 17.1402 102.207 17.1402 102.365 17.1402C102.602 16.9822 102.76 16.9822 102.918 16.9822ZM94.1504 17.1402C94.1504 17.3771 94.0714 17.6141 93.9134 17.7721C93.7554 17.93 93.5185 18.009 93.2815 18.009C93.1236 18.009 93.0446 18.009 92.9656 17.93C92.8866 17.8511 92.7286 17.851 92.6496 17.7721C92.5707 17.6931 92.4917 17.6141 92.4917 17.4561C92.4127 17.3771 92.4127 17.2192 92.4127 17.1402C92.4127 17.0612 92.4127 16.9032 92.4917 16.8242C92.5707 16.7453 92.5707 16.5873 92.6496 16.5083C92.7286 16.4293 92.8076 16.3503 92.9656 16.3503C93.0446 16.2713 93.2025 16.2713 93.2815 16.2713H94.2293L94.1504 17.1402Z" fill="white"/>
<path d="M86.8832 20.3779H85.8564V21.4047H86.8832V20.3779Z" fill="white"/>
<path d="M200.878 8.37245V12.7956C202.221 12.8746 203.406 13.0326 204.59 13.3485C214.227 15.8761 214.543 23.7746 214.543 25.3543V25.5912H206.17V25.3543C206.091 24.0115 205.38 20.8521 200.799 20.0623C199.851 19.9043 198.745 19.8253 197.561 19.9043C197.403 19.9043 197.166 19.9043 196.85 19.9043C195.033 19.9043 190.847 20.3782 190.373 24.6434C190.452 25.5913 190.847 26.4601 191.558 27.092C192.901 28.3557 194.717 28.9086 195.27 28.9876L196.85 29.3825V22.5898C197.087 22.5898 197.245 22.5898 197.245 22.5898H197.482H197.64C197.877 22.5898 198.193 22.5898 198.43 22.5898C199.377 22.5898 200.167 22.6688 200.799 22.8268V30.4094L202.853 30.9622C208.461 32.147 212.41 34.4376 214.543 37.834C216.991 41.7043 216.201 45.8115 216.122 46.1274C214.148 56.4745 204.748 58.1332 200.799 58.4491C200.325 58.4491 199.851 58.4491 199.535 58.4491C199.14 58.4491 198.824 58.4491 198.745 58.4491C198.035 58.4491 197.403 58.4491 196.85 58.4491C192.032 58.2912 188.161 56.8694 185.318 54.1839C181.132 50.3137 180.342 44.8637 180.184 43.284V43.047L188.714 42.5731L188.793 42.81C190.136 49.2868 194.401 50.7876 196.85 51.1035V41.2303L199.772 41.7832H199.851H199.93L200.246 41.8622L200.799 41.9412V51.0245C206.723 50.3926 207.434 45.8115 207.434 45.8115C207.592 43.9948 207.039 42.4941 205.854 41.3093C205.143 40.7564 203.88 39.8876 201.589 39.3347L196.692 38.3869C194.164 37.834 190.61 36.8072 188.161 35.4644C181.764 31.5152 182.08 25.7492 182.08 25.5123C182.159 21.642 183.501 18.5616 186.108 16.271C189.899 13.0326 195.112 12.6377 195.981 12.7166H196.929V8.37245C182.553 9.39926 171.101 21.484 171.101 36.0963C171.101 50.7876 182.553 62.7933 196.929 63.8202V61.1347C197.245 61.1347 197.482 61.1347 197.798 61.1347C198.114 61.1347 198.509 61.1347 198.824 61.1347C198.982 61.1347 199.219 61.1347 199.535 61.1347C200.009 61.1347 200.404 61.1347 200.878 61.1347V63.8991C215.253 62.8723 226.706 50.7876 226.706 36.1753C226.785 21.405 215.332 9.39926 200.878 8.37245ZM200.878 8.37245V12.7956C202.221 12.8746 203.406 13.0326 204.59 13.3485C214.227 15.8761 214.543 23.7746 214.543 25.3543V25.5912H206.17V25.3543C206.091 24.0115 205.38 20.8521 200.799 20.0623C199.851 19.9043 198.745 19.8253 197.561 19.9043C197.403 19.9043 197.166 19.9043 196.85 19.9043C195.033 19.9043 190.847 20.3782 190.373 24.6434C190.452 25.5913 190.847 26.4601 191.558 27.092C192.901 28.3557 194.717 28.9086 195.27 28.9876L196.85 29.3825V22.5898C197.087 22.5898 197.245 22.5898 197.245 22.5898H197.482H197.64C197.877 22.5898 198.193 22.5898 198.43 22.5898C199.377 22.5898 200.167 22.6688 200.799 22.8268V30.4094L202.853 30.9622C208.461 32.147 212.41 34.4376 214.543 37.834C216.991 41.7043 216.201 45.8115 216.122 46.1274C214.148 56.4745 204.748 58.1332 200.799 58.4491C200.325 58.4491 199.851 58.4491 199.535 58.4491C199.14 58.4491 198.824 58.4491 198.745 58.4491C198.035 58.4491 197.403 58.4491 196.85 58.4491C192.032 58.2912 188.161 56.8694 185.318 54.1839C181.132 50.3137 180.342 44.8637 180.184 43.284V43.047L188.714 42.5731L188.793 42.81C190.136 49.2868 194.401 50.7876 196.85 51.1035V41.2303L199.772 41.7832H199.851H199.93L200.246 41.8622L200.799 41.9412V51.0245C206.723 50.3926 207.434 45.8115 207.434 45.8115C207.592 43.9948 207.039 42.4941 205.854 41.3093C205.143 40.7564 203.88 39.8876 201.589 39.3347L196.692 38.3869C194.164 37.834 190.61 36.8072 188.161 35.4644C181.764 31.5152 182.08 25.7492 182.08 25.5123C182.159 21.642 183.501 18.5616 186.108 16.271C189.899 13.0326 195.112 12.6377 195.981 12.7166H196.929V8.37245C182.553 9.39926 171.101 21.484 171.101 36.0963C171.101 50.7876 182.553 62.7933 196.929 63.8202V61.1347C197.245 61.1347 197.482 61.1347 197.798 61.1347C198.114 61.1347 198.509 61.1347 198.824 61.1347C198.982 61.1347 199.219 61.1347 199.535 61.1347C200.009 61.1347 200.404 61.1347 200.878 61.1347V63.8991C215.253 62.8723 226.706 50.7876 226.706 36.1753C226.785 21.405 215.332 9.39926 200.878 8.37245ZM198.903 0C178.92 0 162.807 16.192 162.807 36.0963C162.807 56.0796 178.999 72.1926 198.903 72.1926C218.887 72.1926 235 56.0006 235 36.0963C235.079 16.192 218.887 0 198.903 0ZM198.903 67.9274C181.369 67.9274 167.072 53.71 167.072 36.0963C167.072 18.5616 181.29 4.26521 198.903 4.26521C216.438 4.26521 230.735 18.4826 230.735 36.0963C230.735 53.71 216.517 67.9274 198.903 67.9274ZM200.878 8.37245V12.7956C202.221 12.8746 203.406 13.0326 204.59 13.3485C214.227 15.8761 214.543 23.7746 214.543 25.3543V25.5912H206.17V25.3543C206.091 24.0115 205.38 20.8521 200.799 20.0623C199.851 19.9043 198.745 19.8253 197.561 19.9043C197.403 19.9043 197.166 19.9043 196.85 19.9043C195.033 19.9043 190.847 20.3782 190.373 24.6434C190.452 25.5913 190.847 26.4601 191.558 27.092C192.901 28.3557 194.717 28.9086 195.27 28.9876L196.85 29.3825V22.5898C197.087 22.5898 197.245 22.5898 197.245 22.5898H197.482H197.64C197.877 22.5898 198.193 22.5898 198.43 22.5898C199.377 22.5898 200.167 22.6688 200.799 22.8268V30.4094L202.853 30.9622C208.461 32.147 212.41 34.4376 214.543 37.834C216.991 41.7043 216.201 45.8115 216.122 46.1274C214.148 56.4745 204.748 58.1332 200.799 58.4491C200.325 58.4491 199.851 58.4491 199.535 58.4491C199.14 58.4491 198.824 58.4491 198.745 58.4491C198.035 58.4491 197.403 58.4491 196.85 58.4491C192.032 58.2912 188.161 56.8694 185.318 54.1839C181.132 50.3137 180.342 44.8637 180.184 43.284V43.047L188.714 42.5731L188.793 42.81C190.136 49.2868 194.401 50.7876 196.85 51.1035V41.2303L199.772 41.7832H199.851H199.93L200.246 41.8622L200.799 41.9412V51.0245C206.723 50.3926 207.434 45.8115 207.434 45.8115C207.592 43.9948 207.039 42.4941 205.854 41.3093C205.143 40.7564 203.88 39.8876 201.589 39.3347L196.692 38.3869C194.164 37.834 190.61 36.8072 188.161 35.4644C181.764 31.5152 182.08 25.7492 182.08 25.5123C182.159 21.642 183.501 18.5616 186.108 16.271C189.899 13.0326 195.112 12.6377 195.981 12.7166H196.929V8.37245C182.553 9.39926 171.101 21.484 171.101 36.0963C171.101 50.7876 182.553 62.7933 196.929 63.8202V61.1347C197.245 61.1347 197.482 61.1347 197.798 61.1347C198.114 61.1347 198.509 61.1347 198.824 61.1347C198.982 61.1347 199.219 61.1347 199.535 61.1347C200.009 61.1347 200.404 61.1347 200.878 61.1347V63.8991C215.253 62.8723 226.706 50.7876 226.706 36.1753C226.785 21.405 215.332 9.39926 200.878 8.37245ZM200.878 8.37245V12.7956C202.221 12.8746 203.406 13.0326 204.59 13.3485C214.227 15.8761 214.543 23.7746 214.543 25.3543V25.5912H206.17V25.3543C206.091 24.0115 205.38 20.8521 200.799 20.0623C199.851 19.9043 198.745 19.8253 197.561 19.9043C197.403 19.9043 197.166 19.9043 196.85 19.9043C195.033 19.9043 190.847 20.3782 190.373 24.6434C190.452 25.5913 190.847 26.4601 191.558 27.092C192.901 28.3557 194.717 28.9086 195.27 28.9876L196.85 29.3825V22.5898C197.087 22.5898 197.245 22.5898 197.245 22.5898H197.482H197.64C197.877 22.5898 198.193 22.5898 198.43 22.5898C199.377 22.5898 200.167 22.6688 200.799 22.8268V30.4094L202.853 30.9622C208.461 32.147 212.41 34.4376 214.543 37.834C216.991 41.7043 216.201 45.8115 216.122 46.1274C214.148 56.4745 204.748 58.1332 200.799 58.4491C200.325 58.4491 199.851 58.4491 199.535 58.4491C199.14 58.4491 198.824 58.4491 198.745 58.4491C198.035 58.4491 197.403 58.4491 196.85 58.4491C192.032 58.2912 188.161 56.8694 185.318 54.1839C181.132 50.3137 180.342 44.8637 180.184 43.284V43.047L188.714 42.5731L188.793 42.81C190.136 49.2868 194.401 50.7876 196.85 51.1035V41.2303L199.772 41.7832H199.851H199.93L200.246 41.8622L200.799 41.9412V51.0245C206.723 50.3926 207.434 45.8115 207.434 45.8115C207.592 43.9948 207.039 42.4941 205.854 41.3093C205.143 40.7564 203.88 39.8876 201.589 39.3347L196.692 38.3869C194.164 37.834 190.61 36.8072 188.161 35.4644C181.764 31.5152 182.08 25.7492 182.08 25.5123C182.159 21.642 183.501 18.5616 186.108 16.271C189.899 13.0326 195.112 12.6377 195.981 12.7166H196.929V8.37245C182.553 9.39926 171.101 21.484 171.101 36.0963C171.101 50.7876 182.553 62.7933 196.929 63.8202V61.1347C197.245 61.1347 197.482 61.1347 197.798 61.1347C198.114 61.1347 198.509 61.1347 198.824 61.1347C198.982 61.1347 199.219 61.1347 199.535 61.1347C200.009 61.1347 200.404 61.1347 200.878 61.1347V63.8991C215.253 62.8723 226.706 50.7876 226.706 36.1753C226.785 21.405 215.332 9.39926 200.878 8.37245ZM200.878 8.37245V12.7956C202.221 12.8746 203.406 13.0326 204.59 13.3485C214.227 15.8761 214.543 23.7746 214.543 25.3543V25.5912H206.17V25.3543C206.091 24.0115 205.38 20.8521 200.799 20.0623C199.851 19.9043 198.745 19.8253 197.561 19.9043C197.403 19.9043 197.166 19.9043 196.85 19.9043C195.033 19.9043 190.847 20.3782 190.373 24.6434C190.452 25.5913 190.847 26.4601 191.558 27.092C192.901 28.3557 194.717 28.9086 195.27 28.9876L196.85 29.3825V22.5898C197.087 22.5898 197.245 22.5898 197.245 22.5898H197.482H197.64C197.877 22.5898 198.193 22.5898 198.43 22.5898C199.377 22.5898 200.167 22.6688 200.799 22.8268V30.4094L202.853 30.9622C208.461 32.147 212.41 34.4376 214.543 37.834C216.991 41.7043 216.201 45.8115 216.122 46.1274C214.148 56.4745 204.748 58.1332 200.799 58.4491C200.325 58.4491 199.851 58.4491 199.535 58.4491C199.14 58.4491 198.824 58.4491 198.745 58.4491C198.035 58.4491 197.403 58.4491 196.85 58.4491C192.032 58.2912 188.161 56.8694 185.318 54.1839C181.132 50.3137 180.342 44.8637 180.184 43.284V43.047L188.714 42.5731L188.793 42.81C190.136 49.2868 194.401 50.7876 196.85 51.1035V41.2303L199.772 41.7832H199.851H199.93L200.246 41.8622L200.799 41.9412V51.0245C206.723 50.3926 207.434 45.8115 207.434 45.8115C207.592 43.9948 207.039 42.4941 205.854 41.3093C205.143 40.7564 203.88 39.8876 201.589 39.3347L196.692 38.3869C194.164 37.834 190.61 36.8072 188.161 35.4644C181.764 31.5152 182.08 25.7492 182.08 25.5123C182.159 21.642 183.501 18.5616 186.108 16.271C189.899 13.0326 195.112 12.6377 195.981 12.7166H196.929V8.37245C182.553 9.39926 171.101 21.484 171.101 36.0963C171.101 50.7876 182.553 62.7933 196.929 63.8202V61.1347C197.245 61.1347 197.482 61.1347 197.798 61.1347C198.114 61.1347 198.509 61.1347 198.824 61.1347C198.982 61.1347 199.219 61.1347 199.535 61.1347C200.009 61.1347 200.404 61.1347 200.878 61.1347V63.8991C215.253 62.8723 226.706 50.7876 226.706 36.1753C226.785 21.405 215.332 9.39926 200.878 8.37245Z" fill="url(#paint6_linear_1_1795)"/>
<defs>
<linearGradient id="paint0_linear_1_1795" x1="33.625" y1="2.92359" x2="33.625" y2="73.508" gradientUnits="userSpaceOnUse">
<stop stop-color="#FDCA41"/>
<stop offset="1" stop-color="#F5B838"/>
</linearGradient>
<linearGradient id="paint1_linear_1_1795" x1="27.2337" y1="3.12795" x2="27.2337" y2="73.7125" gradientUnits="userSpaceOnUse">
<stop stop-color="#FDCA41"/>
<stop offset="1" stop-color="#F5B838"/>
</linearGradient>
<linearGradient id="paint2_linear_1_1795" x1="21.0704" y1="2.92359" x2="21.0704" y2="73.508" gradientUnits="userSpaceOnUse">
<stop stop-color="#FDCA41"/>
<stop offset="1" stop-color="#F5B838"/>
</linearGradient>
<linearGradient id="paint3_linear_1_1795" x1="58.7067" y1="2.92359" x2="58.7067" y2="73.508" gradientUnits="userSpaceOnUse">
<stop stop-color="#FDCA41"/>
<stop offset="1" stop-color="#F5B838"/>
</linearGradient>
<linearGradient id="paint4_linear_1_1795" x1="75.3391" y1="2.92335" x2="75.3391" y2="73.5078" gradientUnits="userSpaceOnUse">
<stop stop-color="#FDCA41"/>
<stop offset="1" stop-color="#F5B838"/>
</linearGradient>
<linearGradient id="paint5_linear_1_1795" x1="71.2787" y1="2.92359" x2="71.2787" y2="73.508" gradientUnits="userSpaceOnUse">
<stop stop-color="#FDCA41"/>
<stop offset="1" stop-color="#F5B838"/>
</linearGradient>
<linearGradient id="paint6_linear_1_1795" x1="162.793" y1="36.1128" x2="235.057" y2="36.1128" gradientUnits="userSpaceOnUse">
<stop stop-color="#FDCA41"/>
<stop offset="1" stop-color="#F5B838"/>
</linearGradient>
</defs>
</svg>
