<svg width="52" height="52" viewBox="0 0 52 52" fill="none" xmlns="http://www.w3.org/2000/svg">
<circle cx="26" cy="26" r="26" fill="#26F170" fill-opacity="0.13"/>
<path d="M27.6763 17.3333C28.5576 17.3342 29.4024 17.6846 30.0256 18.3078C30.6487 18.9309 30.9991 19.7758 31 20.657C31 20.9443 31.1141 21.2199 31.3173 21.423C31.5205 21.6262 31.796 21.7403 32.0833 21.7403C32.3707 21.7403 32.6462 21.6262 32.8494 21.423C33.0525 21.2199 33.1667 20.9443 33.1667 20.657V20.5833C33.1667 20.5628 33.1667 20.5443 33.1667 20.5238C33.1305 19.0913 32.5363 17.7296 31.5107 16.7289C30.4851 15.7282 29.1093 15.1676 27.6763 15.1667H26.6667V14.0833C26.6667 13.796 26.5525 13.5205 26.3494 13.3173C26.1462 13.1141 25.8707 13 25.5833 13C25.296 13 25.0205 13.1141 24.8173 13.3173C24.6141 13.5205 24.5 13.796 24.5 14.0833V15.1667H23.4903C22.1874 15.1681 20.9275 15.6328 19.9357 16.4777C18.9439 17.3226 18.2849 18.4927 18.0765 19.7789C17.8682 21.065 18.1239 22.3833 18.7982 23.4982C19.4724 24.6131 20.5212 25.4519 21.757 25.8646L24.5 26.78V34.6667H23.4903C22.6091 34.6658 21.7642 34.3154 21.1411 33.6922C20.518 33.0691 20.1675 32.2242 20.1667 31.343C20.1667 31.0557 20.0525 30.7801 19.8494 30.577C19.6462 30.3738 19.3707 30.2597 19.0833 30.2597C18.796 30.2597 18.5205 30.3738 18.3173 30.577C18.1141 30.7801 18 31.0557 18 31.343V31.4167C18 31.4373 18 31.4557 18 31.4763C18.0362 32.9087 18.6304 34.2704 19.6559 35.2711C20.6815 36.2718 22.0574 36.8324 23.4903 36.8333H24.5V37.9167C24.5 38.204 24.6141 38.4795 24.8173 38.6827C25.0205 38.8859 25.296 39 25.5833 39C25.8707 39 26.1462 38.8859 26.3494 38.6827C26.5525 38.4795 26.6667 38.204 26.6667 37.9167V36.8333H27.6763C28.9792 36.8319 30.2392 36.3672 31.231 35.5223C32.2228 34.6774 32.8817 33.5073 33.0901 32.2211C33.2985 30.935 33.0427 29.6167 32.3685 28.5018C31.6942 27.3869 30.6455 26.5481 29.4097 26.1354L26.6667 25.22V17.3333H27.6763ZM28.7272 28.1894C29.4762 28.4387 30.1121 28.9465 30.5209 29.6218C30.9297 30.2972 31.0848 31.096 30.9583 31.8753C30.8319 32.6545 30.4322 33.3633 29.8309 33.8748C29.2295 34.3862 28.4658 34.667 27.6763 34.6667H26.6667V27.5026L28.7272 28.1894ZM24.5 24.4974L22.4417 23.8106C21.6928 23.5613 21.0571 23.0537 20.6482 22.3786C20.2394 21.7035 20.0842 20.9049 20.2103 20.1258C20.3365 19.3467 20.7357 18.6379 21.3367 18.1263C21.9377 17.6146 22.7011 17.3336 23.4903 17.3333H24.5V24.4974Z" fill="#26F170"/>
</svg>
