<svg width="12" height="14" viewBox="0 0 12 14" fill="none" xmlns="http://www.w3.org/2000/svg">
<path fill-rule="evenodd" clip-rule="evenodd" d="M7.82842 0.962891C9.73504 0.962891 11.0158 2.26854 11.0158 4.21154V9.78828C11.0158 11.7483 9.77446 13.023 7.85328 13.0351L3.18801 13.0369C1.28139 13.0369 0 11.7313 0 9.78828V4.21154C0 2.25095 1.24136 0.976839 3.16254 0.965316L7.82781 0.962891H7.82842ZM7.82842 1.87254L3.16557 1.87496C1.7538 1.88345 0.909647 2.75671 0.909647 4.21154V9.78828C0.909647 11.2528 1.76168 12.1273 3.1874 12.1273L7.85025 12.1255C9.26202 12.117 10.1062 11.2425 10.1062 9.78828V4.21154C10.1062 2.74701 9.25475 1.87254 7.82842 1.87254ZM7.71144 9.13376C7.9625 9.13376 8.16626 9.33752 8.16626 9.58858C8.16626 9.83965 7.9625 10.0434 7.71144 10.0434H3.33301C3.08194 10.0434 2.87818 9.83965 2.87818 9.58858C2.87818 9.33752 3.08194 9.13376 3.33301 9.13376H7.71144ZM7.71144 6.59494C7.9625 6.59494 8.16626 6.7987 8.16626 7.04976C8.16626 7.30082 7.9625 7.50458 7.71144 7.50458H3.33301C3.08194 7.50458 2.87818 7.30082 2.87818 7.04976C2.87818 6.7987 3.08194 6.59494 3.33301 6.59494H7.71144ZM5.00354 4.062C5.2546 4.062 5.45837 4.26576 5.45837 4.51682C5.45837 4.76788 5.2546 4.97164 5.00354 4.97164H3.33282C3.08176 4.97164 2.878 4.76788 2.878 4.51682C2.878 4.26576 3.08176 4.062 3.33282 4.062H5.00354Z" fill="black"/>
</svg>
