<svg width="52" height="52" viewBox="0 0 52 52" fill="none" xmlns="http://www.w3.org/2000/svg">
<circle cx="26" cy="26" r="26" fill="#26F170" fill-opacity="0.13"/>
<path fill-rule="evenodd" clip-rule="evenodd" d="M23.4419 18.8715C23.9437 19.2656 24.2323 19.8532 24.2323 20.4836C24.2323 25.5656 24.4038 26.9331 25.105 27.4535C25.5651 27.7931 26.1955 27.7896 28.3199 27.7305C29.3073 27.7015 30.5717 27.6644 32.2278 27.6644C32.8884 27.6644 33.5108 27.9472 33.9326 28.4398C34.3244 28.8976 34.4959 29.4956 34.4055 30.0843C33.6313 35.0967 29.3664 38.737 24.2648 38.737C18.6045 38.737 14 34.1325 14 28.4734C14 23.986 17.3934 19.4985 21.5644 18.4717C22.2157 18.3129 22.9157 18.4613 23.4419 18.8715ZM22.0917 20.1464C22.0546 20.1464 22.0176 20.151 21.9805 20.1603C18.5384 21.0075 15.7384 24.737 15.7384 28.4734C15.7384 33.174 19.5629 36.9986 24.2648 36.9986C28.503 36.9986 32.0447 33.9795 32.6868 29.8189C32.6914 29.7841 32.7076 29.6833 32.6126 29.5709C32.5222 29.4654 32.3785 29.4029 32.2278 29.4029C30.5926 29.4029 29.3444 29.4399 28.3697 29.4678C26.0101 29.5384 25.0343 29.5651 24.07 28.85C22.6913 27.8286 22.51 26.1114 22.495 21.2926L22.4939 20.4836C22.4939 20.3863 22.4522 20.3052 22.3687 20.2403C22.2911 20.1788 22.1926 20.1464 22.0917 20.1464ZM34.9194 17.1682C36.9568 19.2045 38.2502 21.8805 38.2131 23.9863C38.1992 24.808 37.6023 25.4941 36.7957 25.6158C35.2219 25.8534 33.3791 25.9252 31.7485 25.9252C30.2303 25.9252 28.894 25.8638 28.1257 25.8198C27.1591 25.763 26.3896 24.9923 26.3339 24.0257C26.2435 22.4936 26.0477 18.6007 26.1867 15.5898C26.225 14.7148 26.9319 14.0182 27.7965 14.0032C30.2732 13.9313 32.8286 15.081 34.9194 17.1682ZM27.9449 15.7404H27.9194C27.7919 18.6598 27.9808 22.431 28.0689 23.9249C28.0735 24.0141 28.1384 24.079 28.2265 24.0837C29.4179 24.152 33.5228 24.3421 36.4747 23.9075C36.4816 22.2803 35.3679 20.0737 33.6909 18.3979C31.971 16.6803 29.9359 15.7404 27.9449 15.7404Z" fill="#26F170"/>
</svg>
