<svg width="18" height="18" viewBox="0 0 18 18" fill="none" xmlns="http://www.w3.org/2000/svg">
<path fill-rule="evenodd" clip-rule="evenodd" d="M8.13052 10.903L11.496 16.3631C11.6433 16.6024 11.8734 16.5996 11.9663 16.5867C12.0593 16.5739 12.2829 16.5168 12.3639 16.2453L16.5724 2.03132C16.646 1.78008 16.5107 1.6089 16.45 1.54816C16.3911 1.48742 16.2227 1.35766 15.9788 1.42668L1.75469 5.59195C1.48504 5.6711 1.42615 5.89749 1.41326 5.99044C1.40038 6.08523 1.3967 6.31991 1.63505 6.46991L7.15776 9.92379L12.0372 4.99284C12.305 4.72227 12.7421 4.71951 13.0136 4.98731C13.2851 5.25512 13.2869 5.69318 13.0191 5.96375L8.13052 10.903ZM11.8945 17.9727C11.254 17.9727 10.6669 17.6469 10.3208 17.0874L6.75283 11.2978L0.903417 7.63961C0.273013 7.2448 -0.056454 6.5417 0.0456991 5.8027C0.146932 5.0637 0.654016 4.47655 1.36633 4.26764L15.5905 0.102373C16.2448 -0.0890486 16.9461 0.09225 17.4283 0.572645C17.9105 1.05764 18.09 1.76627 17.8949 2.42336L13.6864 16.6364C13.4756 17.3515 12.8866 17.8568 12.1495 17.9552C12.0629 17.9663 11.9792 17.9727 11.8945 17.9727Z" fill="#393939"/>
</svg>
