<svg width="7" height="7" viewBox="0 0 7 7" fill="none" xmlns="http://www.w3.org/2000/svg">
<path d="M2.64914 0.92705C2.94849 0.00573921 4.2519 0.00573969 4.55125 0.92705L4.58806 1.04033C4.72193 1.45235 5.10589 1.73131 5.53911 1.73131H5.65822C6.62694 1.73131 7.02972 2.97092 6.246 3.54033L6.14964 3.61033C5.79916 3.86498 5.6525 4.31634 5.78637 4.72837L5.82318 4.84164C6.12253 5.76295 5.06805 6.52908 4.28434 5.95968L4.18798 5.88967C3.83749 5.63502 3.3629 5.63502 3.01241 5.88967L2.91605 5.95968C2.13234 6.52908 1.07786 5.76295 1.37721 4.84164L1.41402 4.72837C1.54789 4.31634 1.40123 3.86498 1.05075 3.61033L0.954388 3.54032C0.170674 2.97092 0.57345 1.73131 1.54217 1.73131H1.66128C2.0945 1.73131 2.47846 1.45235 2.61233 1.04033L2.64914 0.92705Z" fill="#F9B86B"/>
</svg>
