<svg width="37" height="37" viewBox="0 0 37 37" fill="none" xmlns="http://www.w3.org/2000/svg">
<path d="M31.9866 27.167C30.5294 28.9417 28.6526 30.3221 26.5274 31.1824C24.4023 32.0427 22.0963 32.3556 19.8197 32.0925C17.5431 31.8293 15.3684 30.9986 13.4939 29.676C11.6193 28.3534 10.1045 26.581 9.08753 24.5204L22.1461 24.5204C22.7537 24.5204 23.3364 24.2782 23.766 23.8471C24.1957 23.416 24.4371 22.8313 24.4371 22.2216C24.4371 21.6119 24.1957 21.0272 23.766 20.5961C23.3364 20.165 22.7537 19.9228 22.1461 19.9228L7.72669 19.9228C7.60648 18.9047 7.60648 17.8759 7.72669 16.8578L22.1461 16.8578C22.7537 16.8578 23.3364 16.6156 23.766 16.1845C24.1957 15.7534 24.4371 15.1687 24.4371 14.559C24.4371 13.9494 24.1957 13.3646 23.766 12.9335C23.3364 12.5024 22.7537 12.2603 22.1461 12.2603L9.08753 12.2603C10.1045 10.1996 11.6193 8.42724 13.4939 7.10462C15.3684 5.78201 17.5431 4.95127 19.8197 4.68815C22.0963 4.42502 24.4023 4.73789 26.5274 5.59821C28.6526 6.45854 30.5294 7.83895 31.9866 9.6136C32.3734 10.0839 32.9306 10.3807 33.5355 10.4387C34.1405 10.4968 34.7436 10.3113 35.2123 9.92317C35.6809 9.53501 35.9767 8.97594 36.0346 8.36895C36.0924 7.76196 35.9076 7.15676 35.5208 6.6865C33.4579 4.17548 30.7674 2.25926 27.7243 1.13381C24.6813 0.00835506 21.395 -0.285953 18.2014 0.280982C15.0079 0.847918 12.0217 2.25575 9.54822 4.36052C7.07476 6.46529 5.20279 9.19146 4.12375 12.2603L2.29097 12.2603C1.68337 12.2603 1.10065 12.5024 0.671011 12.9335C0.24137 13.3646 -8.80237e-09 13.9494 -9.18709e-09 14.559C-9.5718e-09 15.1687 0.24137 15.7534 0.671011 16.1845C1.10065 16.6156 1.68337 16.8578 2.29097 16.8578L3.13252 16.8578C3.08976 17.3651 3.05463 17.8723 3.05463 18.3903C3.05463 18.9083 3.08976 19.4156 3.13252 19.9228L2.29097 19.9228C1.68337 19.9228 1.10065 20.165 0.671011 20.5961C0.24137 21.0272 -1.36376e-08 21.6119 -1.40223e-08 22.2216C-1.44071e-08 22.8313 0.24137 23.416 0.671011 23.8471C1.10065 24.2782 1.68337 24.5204 2.29097 24.5204L4.12375 24.5204C5.20279 27.5891 7.07476 30.3153 9.54822 32.4201C12.0217 34.5249 15.0079 35.9327 18.2014 36.4996C21.395 37.0666 24.6813 36.7723 27.7243 35.6468C30.7674 34.5213 33.4579 32.6051 35.5208 30.0941C35.9076 29.6238 36.0924 29.0186 36.0346 28.4117C35.9767 27.8047 35.6809 27.2456 35.2123 26.8574C34.9802 26.6652 34.7127 26.5208 34.425 26.4323C34.1373 26.3439 33.8351 26.3131 33.5355 26.3419C32.9306 26.3999 32.3734 26.6967 31.9866 27.167Z" fill="white" fill-opacity="0.65"/>
<path d="M9.08753 24.0204L8.2832 24.0204L8.63916 24.7416C9.69294 26.8769 11.2628 28.7137 13.2056 30.0845C15.1485 31.4553 17.4025 32.3164 19.7623 32.5892C22.1221 32.8619 24.5123 32.5376 26.7151 31.6459C28.9177 30.7542 30.8627 29.3235 32.3729 27.4845C32.6755 27.1167 33.111 26.8849 33.5833 26.8396C33.8172 26.8171 34.0533 26.8411 34.278 26.9102C34.5028 26.9794 34.7119 27.0922 34.8933 27.2425C35.2598 27.546 35.4915 27.9836 35.5368 28.4591C35.5822 28.9346 35.4373 29.4085 35.1346 29.7765L35.1344 29.7767C33.1277 32.2193 30.5106 34.0832 27.5509 35.1778C24.5912 36.2725 21.3949 36.5587 18.2888 36.0073C15.1828 35.4559 12.2782 34.0866 9.87225 32.0393C7.46627 29.9919 5.64519 27.34 4.59544 24.3545L4.47795 24.0204L4.12375 24.0204L2.29097 24.0204C1.81653 24.0204 1.36117 23.8313 1.02516 23.4941C0.689103 23.1569 0.5 22.6992 0.5 22.2216C0.5 21.744 0.689103 21.2863 1.02516 20.9491C1.36117 20.6119 1.81653 20.4228 2.29097 20.4228L3.13252 20.4228L3.67645 20.4228L3.63076 19.8808C3.58831 19.3773 3.55463 18.8868 3.55463 18.3903C3.55463 17.8938 3.58831 17.4033 3.63076 16.8998L3.67645 16.3578L3.13252 16.3578L2.29097 16.3578C1.81653 16.3578 1.36117 16.1687 1.02516 15.8315C0.689103 15.4943 0.5 15.0366 0.5 14.559C0.5 14.0814 0.689103 13.6237 1.02516 13.2865C1.36117 12.9494 1.81653 12.7603 2.29097 12.7603L4.12375 12.7603L4.47795 12.7603L4.59544 12.4261C5.64519 9.44062 7.46627 6.78866 9.87225 4.74131C12.2782 2.69398 15.1828 1.32469 18.2888 0.773285C21.3949 0.221884 24.5912 0.508118 27.5509 1.60276C30.5106 2.69741 33.1277 4.56126 35.1344 7.0039L35.1346 7.00415C35.4373 7.37211 35.5822 7.84598 35.5368 8.32151C35.4915 8.79702 35.2598 9.23456 34.8933 9.53809C34.5269 9.84158 34.0557 9.98635 33.5833 9.94101C33.1109 9.89567 32.6754 9.66386 32.3727 9.29596C30.8626 7.45702 28.9177 6.02642 26.7151 5.13475C24.5123 4.24302 22.1221 3.91871 19.7623 4.19145C17.4025 4.46419 15.1485 5.32528 13.2056 6.69607C11.2628 8.06686 9.69294 9.90369 8.63916 12.039L8.2832 12.7603L9.08753 12.7603L22.1461 12.7603C22.6205 12.7603 23.0759 12.9494 23.4119 13.2865C23.7479 13.6237 23.9371 14.0814 23.9371 14.559C23.9371 15.0366 23.7479 15.4943 23.4119 15.8315C23.0759 16.1687 22.6205 16.3578 22.1461 16.3578L7.72669 16.3578L7.28225 16.3578L7.23014 16.7992C7.10533 17.8562 7.10533 18.9244 7.23014 19.9814L7.28225 20.4228L7.72669 20.4228L22.1461 20.4228C22.6205 20.4228 23.0759 20.6119 23.4119 20.9491C23.7479 21.2863 23.9371 21.744 23.9371 22.2216C23.9371 22.6992 23.7479 23.1569 23.4119 23.4941C23.0759 23.8313 22.6205 24.0204 22.1461 24.0204L9.08753 24.0204Z" stroke="white" stroke-opacity="0.15"/>
</svg>
