<svg width="37" height="28" viewBox="0 0 37 28" fill="none" xmlns="http://www.w3.org/2000/svg">
<path d="M8.28424 17.9806C9.52557 17.9806 10.5319 16.9743 10.5319 15.733C10.5319 14.4916 9.52557 13.4854 8.28424 13.4854C7.04291 13.4854 6.03662 14.4916 6.03662 15.733C6.03662 16.9743 7.04291 17.9806 8.28424 17.9806Z" fill="white"/>
<path d="M10.2819 15.733C10.2819 16.8362 9.3875 17.7306 8.28424 17.7306C7.18099 17.7306 6.28662 16.8362 6.28662 15.733C6.28662 14.6297 7.18099 13.7354 8.28424 13.7354C9.3875 13.7354 10.2819 14.6297 10.2819 15.733Z" stroke="white" stroke-opacity="0.49" stroke-width="0.5"/>
<path d="M28.5207 0H7.50544C5.51561 0.00238493 3.60795 0.794371 2.20093 2.20223C0.793899 3.6101 0.00238352 5.51889 0 7.5099L0 19.5257C0.00238352 21.5168 0.793899 23.4256 2.20093 24.8334C3.60795 26.2413 5.51561 27.0333 7.50544 27.0357H28.5207C30.5105 27.0333 32.4182 26.2413 33.8252 24.8334C35.2322 23.4256 36.0237 21.5168 36.0261 19.5257V7.5099C36.0237 5.51889 35.2322 3.6101 33.8252 2.20223C32.4182 0.794371 30.5105 0.00238493 28.5207 0ZM7.50544 3.00396H28.5207C29.715 3.00396 30.8605 3.47869 31.705 4.32372C32.5495 5.16875 33.024 6.31485 33.024 7.5099H3.00218C3.00218 6.31485 3.47663 5.16875 4.32115 4.32372C5.16568 3.47869 6.3111 3.00396 7.50544 3.00396ZM28.5207 24.0317H7.50544C6.3111 24.0317 5.16568 23.557 4.32115 22.7119C3.47663 21.8669 3.00218 20.7208 3.00218 19.5257V10.5139H33.024V19.5257C33.024 20.7208 32.5495 21.8669 31.705 22.7119C30.8605 23.557 29.715 24.0317 28.5207 24.0317Z" fill="white"/>
<path d="M33.024 7.7599H33.274V7.5099C33.274 6.2486 32.7732 5.03892 31.8818 4.147C30.9904 3.25507 29.7814 2.75396 28.5207 2.75396H7.50544C6.24475 2.75396 5.03572 3.25507 4.14432 4.147C3.25293 5.03892 2.75218 6.2486 2.75218 7.5099V7.7599H3.00218H33.024ZM3.00218 10.2639H2.75218V10.5139V19.5257C2.75218 20.7871 3.25293 21.9967 4.14432 22.8887C5.03572 23.7806 6.24475 24.2817 7.50544 24.2817H28.5207C29.7814 24.2817 30.9904 23.7806 31.8818 22.8887C32.7732 21.9967 33.274 20.7871 33.274 19.5257V10.5139V10.2639H33.024H3.00218ZM2.37776 2.37896C3.73795 1.01796 5.58206 0.252345 7.5056 0.25H28.5205C30.4441 0.252345 32.2882 1.01796 33.6484 2.37896C35.0086 3.74 35.7738 5.58534 35.7761 7.5102V19.5254C35.7738 21.4503 35.0086 23.2957 33.6484 24.6567C32.2881 26.0177 30.444 26.7833 28.5204 26.7857H7.50574C5.58216 26.7833 3.73798 26.0177 2.37776 24.6567C1.01756 23.2957 0.252343 21.4504 0.25 19.5256V7.51006C0.252343 5.58524 1.01756 3.73996 2.37776 2.37896Z" stroke="white" stroke-opacity="0.49" stroke-width="0.5"/>
</svg>
