<svg width="21" height="35" viewBox="0 0 21 35" fill="none" xmlns="http://www.w3.org/2000/svg">
<path d="M7.602 29.1667C6.38184 29.1655 5.21199 28.6938 4.34921 27.8549C3.48643 27.0161 3.00119 25.8788 3 24.6925C3 24.3057 2.84196 23.9348 2.56066 23.6613C2.27936 23.3878 1.89782 23.2342 1.5 23.2342C1.10218 23.2342 0.720645 23.3878 0.43934 23.6613C0.158036 23.9348 0 24.3057 0 24.6925V24.7917C0 24.8194 0 24.8442 0 24.8719C0.05006 26.8002 0.872794 28.6332 2.29285 29.9803C3.7129 31.3274 5.61796 32.082 7.602 32.0833H9V33.5417C9 33.9284 9.15804 34.2994 9.43934 34.5729C9.72064 34.8464 10.1022 35 10.5 35C10.8978 35 11.2794 34.8464 11.5607 34.5729C11.842 34.2994 12 33.9284 12 33.5417V32.0833H13.398C15.202 32.0815 16.9466 31.4559 18.3198 30.3185C19.6931 29.1811 20.6055 27.6059 20.894 25.8746C21.1826 24.1433 20.8284 22.3686 19.8948 20.8678C18.9612 19.367 17.5091 18.2379 15.798 17.6823L12 16.45V5.83333H13.398C14.6182 5.83449 15.788 6.30625 16.6508 7.14507C17.5136 7.98388 17.9988 9.12123 18 10.3075C18 10.6943 18.158 11.0652 18.4393 11.3387C18.7206 11.6122 19.1022 11.7658 19.5 11.7658C19.8978 11.7658 20.2794 11.6122 20.5607 11.3387C20.842 11.0652 21 10.6943 21 10.3075V10.2083C21 10.1806 21 10.1558 21 10.1281C20.9499 8.19981 20.1272 6.36676 18.7072 5.01966C17.2871 3.67256 15.382 2.91795 13.398 2.91667H12V1.45833C12 1.07156 11.842 0.700627 11.5607 0.427136C11.2794 0.153645 10.8978 0 10.5 0C10.1022 0 9.72064 0.153645 9.43934 0.427136C9.15804 0.700627 9 1.07156 9 1.45833V2.91667H7.602C5.79798 2.91854 4.05343 3.54409 2.68019 4.68151C1.30695 5.81893 0.394514 7.39408 0.105979 9.12541C-0.182555 10.8567 0.171616 12.6314 1.10519 14.1322C2.03876 15.633 3.49088 16.7621 5.202 17.3177L9 18.55V29.1667H7.602ZM12 19.5227L14.85 20.4473C15.8869 20.7828 16.7671 21.4661 17.3332 22.3749C17.8993 23.2838 18.1142 24.3588 17.9395 25.4076C17.7649 26.4564 17.2121 27.4105 16.38 28.0993C15.5479 28.788 14.4908 29.1664 13.398 29.1667H12V19.5227ZM6.15 14.5527C5.11311 14.2172 4.23287 13.5339 3.6668 12.6251C3.10074 11.7162 2.8858 10.6412 3.06045 9.59244C3.2351 8.54364 3.78795 7.58949 4.62005 6.90075C5.45214 6.21201 6.50919 5.83363 7.602 5.83333H9V15.4773L6.15 14.5527Z" fill="white" fill-opacity="0.6"/>
</svg>
