<svg width="54" height="54" viewBox="0 0 54 54" fill="none" xmlns="http://www.w3.org/2000/svg">
<circle cx="27" cy="27" r="27" fill="#26F170" fill-opacity="0.13"/>
<path d="M38.6976 37.6673H20.1517C19.3319 37.6673 18.5457 37.3417 17.966 36.762C17.3863 36.1823 17.0607 35.3961 17.0607 34.5763V16.0303C17.0607 15.7571 16.9521 15.495 16.7589 15.3018C16.5657 15.1086 16.3036 15 16.0303 15C15.7571 15 15.495 15.1086 15.3018 15.3018C15.1086 15.495 15 15.7571 15 16.0303V34.5763C15.0016 35.9421 15.5449 37.2515 16.5107 38.2173C17.4765 39.1831 18.7859 39.7263 20.1517 39.728H38.6976C38.9709 39.728 39.233 39.6194 39.4262 39.4262C39.6194 39.233 39.728 38.9709 39.728 38.6976C39.728 38.4244 39.6194 38.1623 39.4262 37.9691C39.233 37.7759 38.9709 37.6673 38.6976 37.6673Z" fill="#26F170"/>
<path d="M21.1817 35.6065C21.455 35.6065 21.717 35.4979 21.9103 35.3047C22.1035 35.1115 22.212 34.8494 22.212 34.5762V27.3638C22.212 27.0906 22.1035 26.8285 21.9103 26.6353C21.717 26.442 21.455 26.3335 21.1817 26.3335C20.9084 26.3335 20.6464 26.442 20.4531 26.6353C20.2599 26.8285 20.1514 27.0906 20.1514 27.3638V34.5762C20.1514 34.8494 20.2599 35.1115 20.4531 35.3047C20.6464 35.4979 20.9084 35.6065 21.1817 35.6065Z" fill="#26F170"/>
<path d="M25.3037 25.3033V34.5763C25.3037 34.8495 25.4123 35.1116 25.6055 35.3048C25.7987 35.4981 26.0608 35.6066 26.334 35.6066C26.6073 35.6066 26.8694 35.4981 27.0626 35.3048C27.2558 35.1116 27.3644 34.8495 27.3644 34.5763V25.3033C27.3644 25.03 27.2558 24.768 27.0626 24.5747C26.8694 24.3815 26.6073 24.2729 26.334 24.2729C26.0608 24.2729 25.7987 24.3815 25.6055 24.5747C25.4123 24.768 25.3037 25.03 25.3037 25.3033Z" fill="#26F170"/>
<path d="M30.4551 28.3941V34.5761C30.4551 34.8494 30.5636 35.1114 30.7569 35.3047C30.9501 35.4979 31.2121 35.6064 31.4854 35.6064C31.7587 35.6064 32.0207 35.4979 32.214 35.3047C32.4072 35.1114 32.5157 34.8494 32.5157 34.5761V28.3941C32.5157 28.1208 32.4072 27.8588 32.214 27.6655C32.0207 27.4723 31.7587 27.3638 31.4854 27.3638C31.2121 27.3638 30.9501 27.4723 30.7569 27.6655C30.5636 27.8588 30.4551 28.1208 30.4551 28.3941Z" fill="#26F170"/>
<path d="M35.6064 24.273V34.5763C35.6064 34.8496 35.715 35.1117 35.9082 35.3049C36.1014 35.4981 36.3635 35.6067 36.6368 35.6067C36.91 35.6067 37.1721 35.4981 37.3653 35.3049C37.5586 35.1117 37.6671 34.8496 37.6671 34.5763V24.273C37.6671 23.9997 37.5586 23.7377 37.3653 23.5445C37.1721 23.3512 36.91 23.2427 36.6368 23.2427C36.3635 23.2427 36.1014 23.3512 35.9082 23.5445C35.715 23.7377 35.6064 23.9997 35.6064 24.273Z" fill="#26F170"/>
<path d="M21.1815 24.273C21.4547 24.273 21.7167 24.1644 21.9099 23.9711L25.6047 20.2764C25.8011 20.0893 26.0619 19.9849 26.3331 19.9849C26.6044 19.9849 26.8652 20.0893 27.0616 20.2764L29.2995 22.5142C29.8791 23.0937 30.6652 23.4193 31.4848 23.4193C32.3044 23.4193 33.0905 23.0937 33.6701 22.5142L39.4256 16.7588C39.6133 16.5645 39.7171 16.3042 39.7148 16.0341C39.7124 15.7639 39.6041 15.5055 39.413 15.3145C39.222 15.1234 38.9636 15.0151 38.6934 15.0127C38.4233 15.0104 38.163 15.1142 37.9687 15.3019L32.2133 21.0563C32.02 21.2495 31.758 21.358 31.4848 21.358C31.2116 21.358 30.9496 21.2495 30.7564 21.0563L28.5185 18.8195C27.9388 18.24 27.1528 17.9145 26.3331 17.9145C25.5135 17.9145 24.7275 18.24 24.1478 18.8195L20.453 22.5142C20.309 22.6583 20.2109 22.8419 20.1712 23.0417C20.1314 23.2416 20.1518 23.4487 20.2298 23.637C20.3078 23.8252 20.4398 23.9861 20.6092 24.0993C20.7786 24.2125 20.9777 24.273 21.1815 24.273Z" fill="#26F170"/>
</svg>
